<?xml version="1.0" encoding="UTF-8" standalone="no"?>
<!-- Created with Inkscape (http://www.inkscape.org/) -->

<svg
   width="756.13696"
   height="306.26416"
   viewBox="0 0 756.13696 306.26416"
   version="1.1"
   id="svg1"
   xml:space="preserve"
   xmlns:inkscape="http://www.inkscape.org/namespaces/inkscape"
   xmlns:sodipodi="http://sodipodi.sourceforge.net/DTD/sodipodi-0.dtd"
   xmlns="http://www.w3.org/2000/svg"
   xmlns:svg="http://www.w3.org/2000/svg"><sodipodi:namedview
     id="namedview1"
     pagecolor="#505050"
     bordercolor="#ffffff"
     borderopacity="1"
     inkscape:showpageshadow="0"
     inkscape:pageopacity="0"
     inkscape:pagecheckerboard="1"
     inkscape:deskcolor="#505050"
     inkscape:document-units="px"><inkscape:page
       x="0"
       y="0"
       width="756.13696"
       height="306.26416"
       id="page2"
       margin="0"
       bleed="0" /></sodipodi:namedview><defs
     id="defs1" /><g
     inkscape:label="Layer 1"
     inkscape:groupmode="layer"
     id="layer1"
     transform="translate(-161.9315,-521.86792)"><rect
       style="fill:#ffffff;fill-opacity:1;stroke-width:2.25008"
       id="rect1"
       width="1080"
       height="1350"
       x="-1080"
       y="0"
       transform="scale(-1,1)" /><g
       id="g1053"
       transform="translate(83.675257,149.12852)"><text
         xml:space="preserve"
         style="font-style:normal;font-variant:normal;font-weight:500;font-stretch:normal;font-size:120.17px;font-family:Inter;-inkscape-font-specification:'Inter Medium';text-align:start;writing-mode:lr-tb;direction:ltr;text-anchor:start;fill:#00d4aa;stroke:#000000;stroke-width:8.05503"
         x="70.276207"
         y="617.42096"
         id="text775"><tspan
           sodipodi:role="line"
           id="tspan775"
           style="font-style:normal;font-variant:normal;font-weight:500;font-stretch:normal;font-family:Inter;-inkscape-font-specification:'Inter Medium';fill:#1a1a1a;stroke:none;stroke-width:8.05506"
           x="70.276207"
           y="617.42096">Paul kinyatti</tspan></text><text
         xml:space="preserve"
         style="font-style:normal;font-variant:normal;font-weight:500;font-stretch:normal;font-size:24.6153px;font-family:Inter;-inkscape-font-specification:'Inter Medium';text-align:start;writing-mode:lr-tb;direction:ltr;text-anchor:start;fill:#00d4aa;stroke:#000000;stroke-width:1.64999"
         x="230.40448"
         y="673.51434"
         id="text776"><tspan
           sodipodi:role="line"
           id="tspan776"
           style="font-style:normal;font-variant:normal;font-weight:500;font-stretch:normal;font-family:Raleway;-inkscape-font-specification:'Raleway Medium';fill:#1a1a1a;stroke:none;stroke-width:1.65"
           x="230.40448"
           y="673.51434">Empowering ideas, elevating experiences</tspan></text><path
         id="path85"
         style="fill:#000000;stroke-width:0.374565"
         d="m 820.41203,372.7394 -0.23681,0.237 -0.24111,0.2411 -1.03205,11.7047 -1.03249,11.7062 -0.4818,6.1092 -0.48223,6.1091 -0.70829,6.6261 -0.70869,6.6259 -2.02796,10.1475 -2.02708,10.147 -0.11195,1.4647 -0.11195,1.464 h -0.31432 -0.3143 l -0.56879,-1.2491 -0.56876,-1.2486 h -0.97996 -0.98038 l -0.28418,0.4623 -0.28417,0.4626 0.61571,1.4105 0.61569,1.4101 1.13841,1.1005 1.13927,1.0996 -0.0431,1.148 -0.0431,1.147 -1.26586,4.9945 -1.26541,4.9941 -1.24218,5.2443 -1.24217,5.2438 -1.19006,5.4934 -1.19137,5.4942 -1.00493,4.7441 -1.00625,4.744 -0.29706,1.8731 -0.30141,1.8727 h -0.46372 -0.46456 l 0.46026,-1.2102 0.45941,-1.209 -0.7156,-0.5942 -0.71559,-0.5943 -0.75563,0.2885 -0.75565,0.2887 v 1.0323 1.0321 l 0.70873,1.1061 0.70827,1.1065 0.13777,0.9986 0.13777,0.9992 -0.37889,1.9093 -0.37889,1.9095 -0.74142,-0.6153 -0.74015,-0.6146 0.52014,-0.5209 0.52097,-0.52 v -0.9168 -0.9164 l -0.80688,-1.2312 -0.80645,-1.2305 h -0.76853 -0.76986 l 0.80388,0.888 0.80385,0.8881 -0.0861,1.1099 -0.0861,1.1087 h -0.89211 -0.89255 v 0.4999 0.4995 l 0.0431,0.3531 0.0431,0.3531 -0.91192,0.3316 -0.91064,0.3314 -0.87362,-0.4542 -0.87404,-0.4543 v -1.2633 -1.2641 l 0.51194,-0.9571 0.51194,-0.956 1.36101,-0.7388 1.36057,-0.7384 -0.66264,-0.044 h -0.66302 l -1.45917,1.4605 -1.46045,1.4592 v 1.4121 l 0.002,1.4118 0.98987,1.6223 0.98985,1.6239 h 0.84908 0.84906 l 1.1836,-1.1123 1.18364,-1.1122 -0.33153,0.8629 -0.33153,0.8616 h 0.80254 0.80259 v 0.3832 0.3832 l -1.32571,1.9884 -1.32569,1.9891 -0.11195,0.1506 -0.11195,0.1509 -1.84667,-1.253 -1.84583,-1.2526 -1.58362,0.2886 -1.5836,0.2928 -1.08673,0.675 -1.08632,0.6752 -1.73558,-1.7344 -1.73516,-1.7355 h -1.61334 -1.61375 l 0.28849,-1.7812 0.28847,-1.781 -0.59803,0.1982 -0.59806,0.1981 -0.0861,1.6654 -0.0861,1.6641 -0.91407,1.878 -0.91367,1.8777 -1.37393,-0.2755 -1.3739,-0.2755 v 0.8116 0.8111 l 0.89857,0.8741 0.89814,0.8745 1.34897,0.094 1.34894,0.095 v -0.3745 -0.3746 l -0.6932,-0.949 -0.69364,-0.9481 0.26695,-0.7702 0.26695,-0.7704 1.01097,-1.1237 1.01182,-1.1239 h 1.45014 1.44925 l 1.4596,1.4602 1.46005,1.4596 v 2.5356 2.5355 h -0.26694 -0.26696 l -0.49427,-1.1233 -0.49474,-1.1238 0.24974,1.299 0.25404,1.2996 -0.31431,0.3141 -0.31432,0.3143 -0.67555,-0.8663 -0.67469,-0.8661 0.29708,0.9988 0.2971,0.9993 -1.25638,-1.3588 -1.2551,-1.3585 -0.18944,0.5731 -0.19376,0.5727 -0.70525,-0.4363 -0.70612,-0.4356 -2.0116,0.1463 -2.01115,0.1464 -1.33819,0.7893 -1.33818,0.7893 -0.25404,0.9656 -0.25402,0.9658 0.43615,1.1466 0.4353,1.1461 0.48869,0.3013 0.48782,0.3015 -0.57135,-1.5142 -0.57222,-1.5143 0.54381,-0.8612 0.5425,-0.862 1.80017,-0.6846 1.79933,-0.6846 0.89342,0.3876 0.89256,0.3875 0.61871,-0.1 0.61829,-0.1 1.00449,0.5374 1.00452,0.5377 v 0.5589 0.5589 l -0.91324,-0.8258 -0.91365,-0.8268 h -0.33584 -0.33583 v 0.3919 0.3917 l 1.47596,0.8725 1.47726,0.8718 -0.28418,0.7358 -0.28416,0.7355 -2.72717,0.7929 -2.72677,0.7923 -1.33947,-0.3316 -1.33861,-0.3314 0.53778,0.5482 0.53776,0.5476 1.46003,0.09 1.46048,0.089 1.1595,-0.3961 1.15992,-0.3962 -0.78534,1.5192 -0.78493,1.5176 v 0.9628 0.9627 l 0.74876,0.6213 0.74919,0.6218 v 2.1867 2.186 h -0.56188 -0.56188 l 0.30569,-1.5393 0.31001,-1.5391 -0.51325,-0.9577 -0.51194,-0.9584 -1.1061,0.06 -1.10611,0.055 0.87361,0.2283 0.87405,0.2281 v 0.8417 0.8423 l -1.04758,0.6549 -1.0484,0.6548 0.24111,0.9167 0.24112,0.9172 -1.20817,0.2282 -1.20686,0.2281 -0.41765,-0.8079 -0.41764,-0.808 0.19804,-1.249 0.19807,-1.2479 1.11129,-0.8631 1.11127,-0.8626 h -0.54725 -0.5468 l -0.89385,0.9874 -0.89386,0.9876 -0.14639,1.3507 -0.14639,1.3499 0.72767,1.4074 0.72807,1.408 h 1.70503 1.70631 l 0.31001,-0.4994 0.31,-0.5 h 0.91882 0.91882 l 0.18946,2.3729 0.18943,2.3724 -2.19889,3.8844 -2.19844,3.8847 -1.06221,-0.3188 -1.06304,-0.3186 -1.7653,-1.6902 -1.76617,-1.6908 -0.0559,-0.8771 -0.0604,-0.8771 -0.31432,-1.4983 -0.3143,-1.4984 -1.03809,-3.7454 -1.03722,-3.7459 -0.16792,-0.5946 -0.16793,-0.5955 -1.29081,-0.8457 -1.29125,-0.8464 -1.6073,0.4534 -1.60729,0.4538 -0.82754,1.6443 -0.82669,1.6456 -5.16631,-5.9034 -5.16546,-5.9021 -1.55088,-1.9967 -1.55132,-1.9956 -0.58943,-1.1239 -0.58902,-1.1236 0.47104,-0.8809 0.4719,-0.8813 -0.69795,-1.6596 -0.69794,-1.6596 -0.62947,0.2196 -0.62991,0.2195 0.0431,1.3317 0.0431,1.3312 -0.33583,-0.1333 -0.33584,-0.1335 -2.47142,-2.9968 -2.47099,-2.9963 -2.20663,-3.2103 -2.20622,-3.2093 -2.37195,-3.4756 -2.37239,-3.4759 v -0.2282 -0.2281 l -0.93994,-1.3257 -0.94076,-1.3254 -3.38508,-6.4928 -3.38423,-6.492 0.31431,1.6074 0.31433,1.608 2.34697,4.1356 2.347,4.1355 3.26927,5.2438 3.26969,5.2438 2.01546,2.8995 2.01546,2.8993 4.63456,6.2863 4.635,6.2862 1.30761,1.5517 1.30633,1.5527 -1.44711,0.2539 -1.4467,0.2541 v 0.6898 0.6893 l 0.99849,0.5536 0.99846,0.5546 0.33584,0.4667 0.33584,0.4676 0.76168,-0.6316 0.76079,-0.6319 0.73282,0.4131 0.73324,0.4134 1.54055,1.9419 1.54013,1.9413 v 0.4531 0.4521 l -0.62432,-0.081 -0.62389,-0.081 -0.62473,0.061 -0.62389,0.06 v 0.736 0.7356 l 1.46951,0.7613 1.47036,0.7599 0.30571,-0.4982 0.30568,-0.4973 h 0.70226 0.70226 l 1.76528,1.5501 1.76531,1.5501 v 0.7267 0.7267 l -0.62387,-0.3572 -0.62389,-0.3574 0.3875,0.4262 0.3875,0.4263 0.75306,0.1118 0.75306,0.1118 1.93665,1.6653 1.93754,1.6644 0.0431,0.2625 0.0432,0.2626 -1.56769,1.9023 -1.56767,1.9014 -0.93001,-0.2412 -0.93088,-0.2412 0.27986,0.4529 0.27987,0.4526 h -1.70459 -1.70416 l -1.38298,-1.2812 -1.3834,-1.2818 0.26265,-1.9651 0.26265,-1.9642 -0.4521,0.2798 -0.45209,0.2798 v 1.8042 1.804 l -0.82495,0.9114 -0.8254,0.9124 0.0474,1.6203 0.0432,1.6216 1.08416,0.8773 1.08416,0.878 h 2.06755 2.06757 l 1.51169,-0.9219 1.51301,-0.9226 1.96078,-2.5714 1.96121,-2.5722 h 0.61054 0.61011 l 1.42559,1.7296 1.42516,1.729 1.42945,4.3007 1.42948,4.2991 -0.29709,4.0848 -0.29708,4.0833 -0.74317,3.7459 -0.74357,3.7455 -0.57221,4.3073 -0.57222,4.3078 h -1.23743 -1.23874 l -1.36789,1.311 -1.36877,1.3107 h -0.28846 -0.28848 l -0.28417,-1.0799 -0.28418,-1.079 0.48567,-0.9071 0.48526,-0.9064 -0.66007,0.254 -0.66005,0.2541 -1.37393,-4.0689 -1.37305,-4.0691 0.24973,-0.2499 0.24973,-0.2495 1.28996,0.3227 1.28954,0.323 0.52528,1.3592 0.52528,1.3603 -0.24111,2.1894 -0.24113,2.1898 0.43833,-0.6915 0.43744,-0.6914 v -2.0557 -2.0549 l -1.07123,-1.3623 -1.07166,-1.3615 -1.37738,0.2024 -1.37865,0.2023 -0.78837,-1.6547 -0.78922,-1.6542 h -0.50721 -0.50762 v 0.6381 0.6381 l 0.82581,1.1795 0.82583,1.1787 -0.61055,0.9784 -0.61097,0.9781 0.28417,0.2842 0.28418,0.2843 v -0.6239 -0.6249 l 0.55241,0.1851 0.55155,0.1853 0.73755,1.98 0.73756,1.9807 0.25404,1.0643 0.25402,1.0645 -0.77631,1.4325 -0.77587,1.4328 -0.0431,-0.5886 -0.0431,-0.5891 -0.8551,-0.8545 -0.8551,-0.8553 -0.17652,-0.8037 -0.18083,-0.8034 v -1.7486 -1.7477 l -0.27127,0.6489 -0.27125,0.6488 -1.22795,-0.8038 -1.22754,-0.8047 -1.34422,0.2067 -1.31624,0.2024 -4.7818,-5.8307 -6.56177,-8.0028 0.28847,-1.3718 0.28847,-1.3714 -0.53733,-0.7493 -0.53649,-0.7491 -0.25403,0.6239 -0.25403,0.6246 h -0.36166 -0.36169 l -2.27896,-3.1215 -2.27897,-3.1215 -2.78702,-5.1487 -2.78745,-5.1489 -0.31002,-0.9685 -0.3057,-0.9696 h -0.46586 -0.46587 v 0.422 0.422 l 0.81893,1.7001 0.81894,1.7004 2.55236,4.2286 2.55152,4.229 3.37474,4.9889 3.37561,4.9876 -0.73757,0.4133 -0.73668,0.4134 -1.04497,-1.0454 -1.04586,-1.0455 -1.05399,0.1551 -1.05359,0.1548 -0.23251,0.7493 -0.23249,0.7492 0.3832,-0.3573 0.38319,-0.3575 0.86758,0.4639 0.8676,0.4644 -0.24113,1.2663 -0.2411,1.2663 0.93172,0.061 0.93217,0.06 0.36168,-0.055 0.36165,-0.055 -0.56661,1.2443 -0.56705,1.2448 h -1.12677 -1.12764 l -1.04155,-1.3735 -1.04151,-1.374 0.31861,0.9993 0.32291,0.9989 0.77459,0.624 0.77543,0.6247 h 1.84067 1.84152 l 0.6355,-0.7669 0.63637,-0.7663 -0.0431,-1.4721 -0.0431,-1.4726 0.42194,-0.2625 0.42195,-0.2628 1.59696,2.0168 1.59694,2.0163 -0.21527,1.1134 -0.21529,1.1135 0.97782,0.9928 0.97866,0.9931 -0.27987,-1.1527 -0.27986,-1.1523 0.42196,0.1551 0.42195,0.1506 1.76401,2.2373 1.76446,2.238 -1.10268,1.2056 -1.1031,1.2056 1.29426,-0.8266 1.29341,-0.826 2.63331,3.0277 2.63419,3.0283 -0.20668,0.2065 -0.20667,0.2068 -2.97088,-1.5539 -2.97086,-1.5548 -2.87142,-2.1708 -2.87229,-2.1714 v 0.4439 0.4435 l 1.85356,1.6266 1.85401,1.6281 -0.14638,1.6809 -0.14639,1.6812 1.73688,1.7374 1.73732,1.7378 h 1.29857 1.29858 v -0.431 -0.431 l -1.14444,0.1248 -1.14487,0.1248 -0.84776,-0.6194 -0.84778,-0.6205 -0.75436,-1.8053 -0.75434,-1.806 v -0.5725 -0.5726 l 1.18662,0.7775 1.18664,0.7775 3.26796,1.7331 3.26797,1.7339 -0.29279,0.2928 -0.29278,0.2927 h -0.89987 -0.89988 l 0.31863,0.831 0.31861,0.831 -0.58988,-0.3658 -0.58857,-0.3619 -2.28715,1.1424 -2.28671,1.1419 -0.63809,1.2627 -0.63808,1.2625 -0.31433,1.7479 -0.3143,1.7486 0.989,1.6225 0.98986,1.6231 h 2.27723 2.27768 l 1.28094,-1.2809 1.28092,-1.2809 0.72205,1.0316 0.72204,1.0308 h 0.54854 0.54896 l -0.82667,-0.9132 -0.82669,-0.9137 v -1.4966 -1.4963 l 1.20989,-1.1366 1.20902,-1.1362 1.99824,0.3358 1.99694,0.3359 0.27126,0.7117 0.27125,0.7124 h 0.7354 0.73541 l 0.36165,0.5839 0.36169,0.5847 -0.88654,-0.34 -0.88696,-0.3402 0.31862,0.825 0.31862,0.8253 -0.76036,-0.6312 -0.76082,-0.6307 v 0.4602 0.4607 l 0.62389,0.652 0.62518,0.6517 -1.74851,-0.3616 -1.74808,-0.3617 -0.62389,-0.5024 -0.62473,-0.5034 v 0.7914 0.791 l 2.01328,0.5421 2.01246,0.542 -0.25834,0.4176 -0.25833,0.4176 -2.29577,-0.043 -2.29575,-0.044 -1.45661,1.3748 -1.45657,1.3744 v 1.7557 1.7559 l 1.69813,1.6983 1.69771,1.6975 h 1.50998 1.50999 l 1.4385,-1.4381 1.43808,-1.4388 0.94336,0.6896 0.94294,0.689 h 0.72249 0.72376 l 0.66349,0.8736 0.66351,0.8745 0.0431,1.2486 0.0432,1.2483 0.95499,2.1036 0.95499,2.1034 -1.48717,-0.2972 -1.48629,-0.297 -1.22754,1.153 -1.22711,1.1521 v 1.4365 1.4359 l 0.76253,1.4734 0.76168,1.4733 h 0.86111 0.86156 l 1.2482,-0.7139 1.24864,-0.7134 h 0.82107 0.81978 l 1.27749,3.8707 1.27748,3.8708 0.46673,2.1024 0.46673,2.1034 -0.66609,4.1393 -0.66564,4.1399 -0.79524,5.7217 -0.79526,5.7223 -0.15931,0.1593 -0.1593,0.1592 -0.50247,-0.6362 -0.5016,-0.6364 -1.59308,-4.651 -1.59308,-4.6496 -0.0431,-2.9614 -0.0432,-2.9614 -0.43356,-0.267 -0.43401,-0.2669 -0.49817,0.9304 -0.49729,0.9301 0.68029,3.2516 0.6803,3.2524 0.73754,2.4486 0.73799,2.4494 1.30159,3.4304 1.30202,3.4301 -0.0431,2.5628 -0.0432,2.5627 -0.67122,5.6283 -0.6704,5.6279 -3.12243,5.609 -1.96077,3.5211 c 0.0947,0.4766 0.22819,0.9464 0.35306,1.4153 0.41333,1.5163 0,-0.043 0.41765,1.5402 0.0431,0.089 0.0515,0.1806 0.0732,0.2711 l 1.16035,-1.6879 1.52635,-2.2173 0.47921,0.2972 0.47921,0.297 2.36163,-1.4527 2.36078,-1.4523 1.49836,-0.4089 1.49792,-0.4092 3.19264,0.072 3.19259,0.073 0.62173,0.5159 0.62304,0.5167 1.27618,-0.5819 1.27747,-0.5817 0.3057,-0.7938 0.30571,-0.7926 -0.78407,-0.574 -0.78446,-0.5736 1.63095,-0.618 1.63142,-0.6182 3.14438,-1.2778 3.14397,-1.2784 0.27556,-0.4482 0.27557,-0.4476 -0.22821,-0.2283 -0.22819,-0.2283 -2.94463,1.4472 -2.94375,1.4476 -1.12377,0.3444 -1.12334,0.3444 v -0.7828 -0.7827 h 0.3746 0.37458 l 1.49838,-1.287 1.49834,-1.2873 -1.66368,1.1022 -1.66283,1.1027 h -1.22926 -1.22968 l -0.29279,-0.2929 -0.29278,-0.2883 1.31105,-1.5583 1.31106,-1.5577 -0.0432,-0.8354 -0.0431,-0.8357 -0.49342,1.2344 -0.49257,1.2349 -0.90675,0.8447 -0.9072,0.8452 -0.94078,0.1 -0.94078,0.099 -0.83486,-0.055 -0.83401,-0.055 -0.32291,-1.4638 -0.32292,-1.463 -0.7298,-0.6058 -0.72851,-0.6049 -0.31862,0.3185 -0.31863,0.3187 -0.93731,-1.5411 -0.93691,-1.5415 0.27556,-0.8658 0.27555,-0.8662 1.01225,-1.0871 1.01227,-1.0873 h -0.47837 -0.47749 l -1.0398,1.6818 -1.03938,1.6825 v 1.4391 1.4399 l 0.98513,1.4983 0.98554,1.4983 0.78793,1.0726 0.78795,1.0728 -1.88373,1.8304 -1.88456,1.8299 -2.96097,1.9767 -2.95969,1.9766 -0.21098,-0.2109 -0.20667,-0.211 1.58662,-2.8119 1.58748,-2.8124 0.18515,-3.0057 0.18515,-3.0063 0.24541,-2.3479 0.24543,-2.3482 0.49342,-4.2445 0.49385,-4.2454 0.20666,-0.9985 0.20669,-0.9992 0.40042,-2.4969 0.40041,-2.4968 -0.0903,-0.3876 -0.0903,-0.3875 0.77931,-0.3015 0.77889,-0.297 1.17459,1.1032 1.1737,1.1031 1.13324,-0.1678 1.1341,-0.1681 0.20666,-0.6277 0.20667,-0.6282 -1.44754,-0.2885 -1.44841,-0.2885 0.2196,-1.4851 0.21956,-1.4848 -1.07123,-0.28 -1.07038,-0.2797 0.56618,-0.682 0.56579,-0.6813 -0.31003,-0.8077 -0.31002,-0.8069 -0.78402,0.3013 -0.78535,0.3015 0.33152,-1.6228 0.33153,-1.6222 1.94012,-8.2408 1.94098,-8.2405 0.55671,-2.2471 0.55758,-2.2475 0.70439,-4.2453 0.70484,-4.2453 0.79782,-3.4953 0.79827,-3.4962 0.16792,-2.0111 0.16793,-2.0121 0.29275,-2.2334 0.29282,-2.2336 0.4538,-3.9957 0.45337,-3.9952 0.34015,-0.874 0.34015,-0.8738 h 0.12055 0.11625 l 1.516,0.7558 1.51558,0.7566 0.82325,-0.3143 0.82364,-0.3143 -0.28415,-0.8978 -0.28418,-0.8977 0.51968,-0.323 0.52013,-0.3229 v -2.7168 -2.7177 l -1.37393,0.069 -1.37306,0.069 1.12376,0.2153 1.12335,0.2153 v 1.9216 1.9228 l -0.30139,0.7894 -0.3057,0.79 h -1.19482 -1.19524 v -0.3746 -0.3746 l 0.44563,-0.704 0.44563,-0.7034 -0.26263,-0.6852 -0.26265,-0.6837 -0.93948,0.2971 -0.94037,0.297 v -0.7543 -0.7543 l 1.12378,-0.8343 1.12377,-0.8349 -1.12377,0.2626 -1.12378,0.2583 -0.0431,-2.3259 -0.0431,-2.3255 -0.19806,-2.9966 -0.20235,-2.9963 -0.3057,-10.7219 -0.30571,-10.7224 -0.18945,-0.1893 -0.18943,-0.1896 -0.58688,0.3616 -0.58557,0.3619 0.32293,2.0223 0.32294,2.0228 0.3143,11.0246 0.31431,11.024 -0.0431,1.7476 -0.0432,1.7486 -0.0645,1.6073 -0.069,1.6072 -0.74918,-0.2883 -0.74917,-0.2886 v 0.9029 0.9029 l -0.58299,-0.5839 -0.58297,-0.5829 0.60665,-2.0246 0.60538,-2.0235 -0.26265,-0.4306 -0.26695,-0.4306 -1.00665,-0.2627 -1.00667,-0.2626 v 0.4134 0.4089 l 0.45813,0.1681 0.45857,0.168 -0.26267,1.3506 -0.26264,1.3502 -1.47122,-0.2971 -1.47123,-0.2927 0.34444,1.3717 0.34445,1.3717 -1.1918,-0.3572 -1.19137,-0.3574 -0.6243,-0.7936 -0.62389,-0.7948 0.0431,-1.0278 0.0432,-1.0286 0.61011,-0.7492 0.61011,-0.7491 0.74702,-0.1766 0.74788,-0.1766 h 1.17717 1.17673 l -0.63637,-0.3917 -0.63596,-0.3919 -1.16509,0.4427 -1.16553,0.4434 v -0.3616 -0.3617 l -0.97652,1.2487 -0.97694,1.2481 v 1.3218 1.3215 l 1.81438,1.5935 1.81441,1.5931 1.60728,-0.3014 1.60814,-0.3013 1.34981,1.9482 1.35025,1.9482 -0.85899,4.8065 -0.8581,4.8063 -0.91708,-0.8303 -0.91667,-0.8296 v -0.7074 -0.7073 l 0.75348,-0.7544 0.75348,-0.7535 -0.28417,-0.4594 -0.28416,-0.459 h -0.71991 -0.7199 v -1.7124 -1.7128 l -1.70158,-1.804 -1.70244,-1.8048 -1.41915,0.3358 -1.41912,0.3358 -0.4663,0.4263 -0.465,0.4261 1.68694,-0.4839 1.6878,-0.4835 1.07899,0.7074 1.07985,0.7067 0.3014,1.8607 0.30139,1.8615 -0.24973,0.4046 -0.24971,0.4046 -0.9804,-0.9801 -0.98126,-0.9805 h -0.49902 -0.49946 v 1.4691 1.4698 l -1.12376,-0.2152 -1.12376,-0.2153 -0.66005,-0.88 -0.65962,-0.8797 0.26264,-1.7481 0.26265,-1.7479 -0.51711,0.8997 -0.51755,0.9009 0.34016,2.024 0.34445,2.0245 0.94592,0.946 0.94597,0.9458 h 1.65765 1.65853 l 1.21375,1.3572 1.21376,1.3575 0.87016,1.2641 0.8706,1.2651 0.002,2.4705 v 2.4707 l -1.27101,-2.5504 -1.27058,-2.5501 -0.72723,-0.2799 -0.72637,-0.2799 v 0.2541 0.254 l 1.24864,1.3468 1.24819,1.3467 v 1.0676 1.0672 l -0.74917,0.6218 -0.74918,0.6218 v 0.7579 0.7581 l -0.87361,0.6634 -0.87404,0.6627 h -1.08329 -1.08287 l -1.5328,-0.8742 -1.53237,-0.8736 -0.70311,-1.7484 -0.70269,-1.7478 0.60667,-1.4983 0.60709,-1.4983 1.21376,-0.6395 1.21289,-0.6385 1.62367,0.1637 1.62235,0.1635 v -0.4004 -0.4004 h -1.46521 -1.46606 l -1.33948,0.5093 -1.33948,0.509 -1.16641,-1.258 -1.16594,-1.2586 h -0.51064 -0.51152 l 0.26696,-1.3739 0.26695,-1.3731 -0.80731,-0.9985 -0.80774,-0.9994 0.56921,1.1704 0.5692,1.1697 -0.27557,1.0778 -0.27555,1.0768 -1.88844,0.8736 -1.8893,0.874 0.9989,-0.3186 0.99847,-0.3185 1.268,-0.2196 1.26671,-0.2197 1.13754,0.9215 1.13756,0.921 -0.53176,1.4002 -0.53261,1.3994 v 1.3702 1.3702 l 0.70227,0.9607 0.70268,0.9596 -0.75737,1.4639 -0.75736,1.464 0.24973,1.8706 0.24972,1.8702 -0.44951,0.541 -0.44993,0.5413 0.33154,-0.2411 0.33152,-0.2411 0.66996,0.5563 0.66995,0.5567 v 1.5616 l -0.002,1.5621 -0.52013,1.8729 -0.52011,1.8726 h -0.35305 -0.35307 l -0.5705,-1.3732 -0.57135,-1.3739 -0.25403,-1.2477 -0.25403,-1.2491 -0.29279,-1.1237 -0.29277,-1.1233 -0.2196,-0.9916 -0.21957,-0.9903 0.68889,-0.3877 0.68846,-0.3873 0.98427,-2.1972 0.98297,-2.1968 -0.26694,-0.6936 -0.26696,-0.6928 -0.25402,0.2541 -0.25834,0.254 -0.0775,1.1398 -0.0775,1.1392 -0.58599,-0.1167 -0.586,-0.1205 0.28848,0.7497 0.28848,0.7491 -0.61183,0.7376 -0.6114,0.737 -0.52011,-0.3228 -0.52013,-0.323 0.34875,0.5619 0.34877,0.5618 -1.27318,0.3187 -1.27318,0.3188 -1.2443,-0.8156 -1.24478,-0.816 v -2.019 -2.0193 l 0.52057,-0.9729 0.52096,-0.9732 -0.3961,0.064 -0.39613,0.064 -0.62387,-0.06 -0.62433,-0.061 v -0.4866 -0.4861 l 1.59353,-0.8241 1.5935,-0.8246 -0.94035,-0.6866 -0.93906,-0.6872 h 0.53605 0.53692 l 0.26263,-0.9986 0.26264,-0.9973 -0.45295,-0.28 -0.45252,-0.2799 -0.0515,0.9032 -0.0515,0.9039 -0.49772,-1.873 -0.49729,-1.873 h -0.3789 -0.37889 l 0.25402,1.3227 0.25403,1.3227 -0.57137,-0.353 -0.5722,-0.3531 v -1.2189 -1.2193 h 0.74917 0.74918 v -0.4178 -0.4176 l -0.32721,-0.3272 -0.32725,-0.3273 -0.74228,0.6163 -0.74228,0.6152 1.04971,-2.0568 1.04928,-2.0563 0.81117,-0.3101 0.81119,-0.3098 h 1.35713 1.35799 l 0.55154,0.5514 0.55156,0.5514 0.35307,-3.9222 0.35305,-3.9231 5.00098,-4.7446 5.00011,-4.7443 1.4919,-2.1675 1.49148,-2.1679 -0.53822,-0.5378 -0.53776,-0.5378 -0.34875,0.9571 -0.34877,0.9576 -1.53753,1.9977 -1.5371,1.9983 -1.00149,0.8221 -1.00235,0.8223 -1.49836,1.3291 -1.49836,1.3296 -1.43592,0.7652 -1.4368,0.7659 0.35737,-2.8611 0.35737,-2.8607 0.69924,-2.3035 0.69965,-2.3039 v -1.2319 -1.2318 l 0.84261,-2.2643 0.84349,-2.2644 1.5836,-2.9966 1.58403,-2.9962 1.64777,-2.9969 1.64733,-2.9962 1.50998,-2.2475 1.50912,-2.2476 1.65765,-1.9625 1.65725,-1.963 v -0.565 -0.5651 l 1.47855,-1.0932 1.47769,-1.092 h 0.76942 0.76898 v -0.4999 -0.4994 h -0.98684 -0.98773 l -0.81763,-1.2482 -0.81806,-1.2487 h -0.43056 -0.43059 l 0.44608,1.1725 0.44563,1.1729 -0.59417,1.1995 -0.59375,1.1991 -2.12827,0.6768 -2.12741,0.6769 -1.73602,-0.3272 -1.73517,-0.3272 -0.83357,-1.2724 -0.83399,-1.2724 0.90203,-1.6743 0.90203,-1.6745 1.58703,-0.7531 1.58664,-0.7526 1.22021,0.1168 1.22021,0.1167 1.24907,0.679 1.24862,0.6785 -1.03205,-1.1908 -1.03162,-1.1918 0.0431,-0.7488 0.0431,-0.7491 2.74699,-0.1335 2.74699,-0.1337 1.06822,-0.545 1.06865,-0.5441 0.5438,-1.1939 0.54424,-1.194 h 0.77157 0.77286 l 0.46284,1.218 0.4633,1.218 0.98985,0.5306 0.98943,0.5296 h 1.83075 1.82946 l 1.44927,-1.551 1.44927,-1.5517 v -1.9152 -1.9155 l 0.49903,-0.3101 0.49988,-0.3099 v -0.9598 -0.9597 l 1.24864,-0.3143 1.24819,-0.3143 1.18964,0.2971 1.18922,0.2971 1.55777,-0.5438 1.55734,-0.5425 v -0.7001 -0.7001 l -0.87403,-0.061 -0.87447,-0.06 -0.62389,0.081 -0.62432,0.081 v -0.2626 -0.2627 l 2.12268,-1.0566 2.12222,-1.0562 6.34047,-3.7763 6.34046,-3.7756 2.8796,-2.2592 2.87874,-2.2601 -0.60021,-0.1979 -0.60019,-0.2024 -0.78966,0.7895 -0.78922,0.7903 -4.83349,3.1864 -4.83349,3.1866 -3.28778,1.8071 -3.28777,1.8071 h -0.40903 -0.40904 l 0.88739,-0.9805 0.88654,-0.9802 -0.29279,-0.7673 -0.29278,-0.7672 h -0.42195 -0.41764 l -0.91237,0.6663 -0.91151,0.6662 -0.12486,1.6083 -0.12485,1.608 -0.2971,0.297 -0.29708,0.2971 -2.55237,0.8637 -2.55324,0.865 -0.50848,-0.2539 1.02127,-0.8672 1.16898,-0.9925 -0.27125,-1.674 -0.27126,-1.6733 -0.58427,-0.7043 -0.58557,-0.7044 h -1.77908 -1.77908 l -1.23657,1.1237 -1.23572,1.1236 0.33154,-0.9168 0.33154,-0.9167 0.31001,-2.8288 0.30999,-2.8292 0.70182,-1.1234 0.70138,-1.1236 h 1.15737 1.15691 l 0.586,-1.2862 0.58599,-1.286 -0.3057,-0.4948 -0.3057,-0.4943 -0.82366,0.7058 -0.82453,0.7051 -0.91365,0.3272 -0.91367,0.323 0.27127,-1.3726 0.27125,-1.3731 0.80257,-4.4946 0.80343,-4.4947 1.03463,-4.495 1.03508,-4.4946 0.70526,-1.4002 0.70525,-1.4002 0.93002,0.1507 0.92958,0.1506 1.2904,-1.2103 1.29127,-1.2106 v -0.6619 -0.6631 h -1.22926 -1.22969 l -1.01742,1.0938 -1.01828,1.0932 v -0.7178 -0.7178 l 1.44754,-5.9939 1.44799,-5.9942 0.79439,-6.2428 0.79482,-6.2424 0.66306,-2.2475 0.66436,-2.2475 1.64604,0.1335 1.64561,0.1335 -0.28418,-0.7432 -0.28416,-0.7422 0.47663,-0.2971 0.47792,-0.2927 v -0.7854 -0.785 l -1.69944,0.2757 -1.69942,0.2755 0.13778,-1.0843 0.13779,-1.0849 0.77802,-4.4946 0.77803,-4.4947 0.78362,-8.7404 0.78362,-8.739 0.55673,-6.9925 0.55671,-6.9919 0.61484,-6.9914 0.61569,-6.9923 -0.17222,-0.2066 z m -63.38865,122.5414 -0.7595,0.2928 -0.75823,0.293 0.44392,0.8286 0.44391,0.8295 1.07899,2.9914 1.07941,2.9915 0.66608,2.1223 0.66608,2.1222 h -0.60021 -0.60063 l -0.55585,-0.5559 -0.55499,-0.5554 -0.54381,0.3359 -0.54293,0.3358 v 0.6584 0.6587 l 0.74401,0.6174 0.74357,0.6174 -0.30568,0.496 -0.30571,0.4961 0.98383,-0.3101 0.98426,-0.31 1.32529,1.3253 1.32611,1.3257 v 0.5808 0.5817 l -0.54637,0.546 -0.54553,0.5455 0.83401,1.2723 0.83313,1.2724 -1.80318,-0.4979 -1.80277,-0.4981 -0.85812,0.2712 -0.85811,0.2714 -0.69363,1.1288 -0.69407,1.1293 0.98384,-0.8738 0.9847,-0.8738 h 0.98425 0.98427 l 0.59933,0.5995 0.59894,0.5988 v 0.6338 0.6333 l -0.71001,-0.2711 -0.7113,-0.2714 -0.53906,1.0075 -0.53906,1.0076 0.50117,0.31 0.50031,0.3101 v 0.5527 0.5534 l -0.32721,-0.3274 -0.32723,-0.3271 -0.64843,0.5382 -0.64886,0.5379 -0.55584,-0.3446 -0.55587,-0.3445 -0.43314,-1.0725 -0.43228,-1.0725 -0.0431,0.9069 -0.0432,0.9066 0.51625,0.9658 0.51754,0.9665 h 1.6693 1.66884 l 0.57567,-0.6937 0.57524,-0.6927 1.84924,0.4176 1.84927,0.4178 0.17222,0.5261 0.17225,0.5257 h 0.52053 0.52054 l -0.38317,-1.6231 -0.38321,-1.6232 -0.0515,-1.4985 -0.0559,-1.4982 1.66324,-0.7316 1.66412,-0.7324 -0.33152,-2.2639 -0.33154,-2.2653 -0.86845,-1.4983 -0.86844,-1.4983 -1.21461,0.1722 -1.21419,0.1723 -0.63638,0.5218 -0.63635,0.5214 -0.18515,-0.198 -0.18514,-0.1937 -1.27661,-3.9957 -1.27663,-3.9952 -1.06305,-3.2461 -1.06304,-3.2469 -0.18948,-0.6155 z m 46.17262,2.2303 h 2.24022 2.24065 l 0.46028,1.8635 0.4607,1.8631 -0.95973,1.1333 -0.84046,0.9921 -0.91495,-0.4566 -1.45185,-0.7243 v -0.7481 -0.7484 l -0.77415,-0.7741 -0.77458,-0.7741 0.1593,-0.8135 z m -2.70952,6.2428 h 1.50524 1.50655 l 1.0906,0.5745 1.09063,0.5738 0.36598,0.5494 0.36597,0.5494 v 1.0704 1.0703 l -0.62432,0.2024 -0.62431,0.2023 -2.49295,-0.8494 -2.49339,-0.8486 -0.92099,0.4926 -0.92011,0.4929 -0.27556,-0.2755 -0.27555,-0.2757 1.3438,-1.7614 z m -11.99028,3.9952 h 1.65636 1.65636 l 1.35712,1.3575 1.35803,1.3572 -0.3014,1.5079 -0.3014,1.5077 -0.71904,0.719 -0.71947,0.7191 -2.55066,0.1119 -2.55195,0.1166 0.30571,-0.7985 0.3057,-0.7997 -0.93517,0.8465 -0.93518,0.8456 h -0.23681 -0.23681 l 0.0646,-2.6221 0.0645,-2.6222 0.0861,-0.5442 0.0861,-0.5433 1.27232,-0.5802 z m 10.44154,0 h 1.46564 1.46564 l 1.39544,0.5309 1.39632,0.5303 0.37458,0.5934 0.3789,0.5925 v 1.2797 1.2787 l -1.01827,1.0931 -1.01828,1.0937 -0.60452,0.043 -0.60493,0.044 -1.02905,0.1168 -1.02947,0.1167 -0.5748,-1.218 -0.57524,-1.218 1.07554,-0.8707 1.0747,-0.8706 -1.09363,-0.5855 -1.09407,-0.5851 v -0.9808 z m -38.9551,0.9993 h 0.24973 0.24973 v 0.2497 0.2498 h -0.24973 -0.24973 v -0.2498 z m 35.9584,0.9985 h 0.24972 0.24973 v 0.2498 0.2496 h -0.24973 -0.24972 v -0.2496 z m -14.9827,0.4994 v 0.4991 0.4998 h 0.49901 0.49946 v -0.4998 -0.4991 h -0.49946 z m 1.99693,0 v 0.4991 0.4998 h 0.4999 0.49945 v -0.4998 -0.4991 h -0.49945 z m -19.3701,0.4991 h 1.24216 1.24131 l 0.26264,0.9993 0.26263,0.9986 h 0.44092 0.44175 v 1.6644 1.665 l -0.31001,0.31 -0.31001,0.31 -0.77458,-0.7744 -0.77502,-0.7751 -0.88049,1.1667 -0.88093,1.1678 -0.54165,-1.4242 -0.54163,-1.4253 0.18083,-1.0664 0.18082,-1.0662 0.37891,-0.8741 z m 24.36463,1.3321 -0.33153,0.3316 -0.33155,0.3315 h 0.66566 0.66565 l -0.33152,-0.3315 z m -7.9908,1.1655 h 0.24971 0.24974 v 0.2497 0.2498 h -0.24974 -0.24971 v -0.2498 z m -2.99672,1.4984 v 0.7492 0.7488 h 0.49989 0.49988 v -0.7488 -0.7492 h -0.49988 z m 15.73188,0.9994 2.1231,1.0505 2.12225,1.0507 v 0.53 0.5313 l 0.37459,-0.3791 0.3746,-0.3787 -1.49836,-1.2012 -1.49836,-1.2014 h -0.99848 z m -9.23899,0.3314 0.33152,0.3316 0.33155,0.3316 -0.33155,0.3316 -0.33152,0.3315 v -0.6658 z m -2.99672,0.6658 v 0.2497 0.2497 h 0.24974 0.24971 v -0.2497 -0.2497 h -0.24971 z m -14.48282,0.4994 h 0.24974 0.24971 v 0.2497 0.2497 h -0.24971 -0.24974 v -0.2497 z m -2.62125,1.9547 0.31,0.8115 0.31001,0.8114 v 0.4046 0.4048 l -1.2482,-0.072 -1.24822,-0.073 -8.4e-4,-0.2972 v -0.297 l 0.93776,-0.8478 z m 33.58513,0.043 v 0.2497 0.2498 h 0.24971 0.24973 v -0.2498 -0.2497 h -0.24973 z m -41.45151,0.3316 v 0.6656 0.6661 l 0.33153,-0.3316 0.33153,-0.3314 -0.33153,-0.3317 z m 42.01037,1.1193 -1.0286,0.6425 -1.02862,0.6424 v 0.379 0.3788 h -1.27792 -1.27789 l 0.28848,0.4694 0.28847,0.4696 1.49836,-0.5222 1.49748,-0.5214 0.51841,-0.9696 z m -36.11338,5.3842 1.53925,0.043 1.53926,0.043 0.47748,0.2929 0.47751,0.297 0.33584,2.23 0.33582,2.2299 -0.31,0.8117 -0.30999,0.8111 -0.70269,-0.5831 -0.7031,-0.5839 -0.43917,0.785 -0.43875,0.7841 -1.34894,-1.408 -1.34939,-1.4084 v -1.4711 -1.4704 l 0.44434,-0.7027 z m 19.02782,0.655 h 3.04923 3.04838 l -0.37459,0.6238 -0.37026,0.6243 -1.96424,2.6218 -1.96421,2.6221 h -0.17654 -0.17222 l -0.43875,-0.8736 -0.43961,-0.874 -0.099,-2.3725 z m -6.94584,2.9966 v 0.2498 0.2497 h 0.24974 0.24972 v -0.2497 -0.2498 h -0.24972 z m -16.9805,1.498 v 0.499 0.4998 h 0.2196 0.21958 l 0.31001,-0.4998 0.31,-0.499 h -0.52917 z m -1.02258,0.31 -0.86199,0.9029 -0.8624,0.9029 1.16681,-0.5986 1.16597,-0.5984 -0.3057,-0.3058 z m 11.46372,0.6601 0.49515,1.8876 0.49471,1.888 0.33154,1.373 0.33153,1.3738 h -0.27986 -0.27988 l -1.2327,-1.6232 -1.23227,-1.6232 0.26696,-1.3806 0.26694,-1.3812 0.41764,-0.2585 z m -10.94102,6.023 v 0.2499 0.2495 h 0.24973 0.24972 v -0.2495 -0.2499 h -0.24972 z m -2.89509,0.5976 1.66627,1.1312 1.66583,1.1303 2.02839,-0.155 2.02967,-0.1551 v 0.6721 0.6726 l -1.62321,0.939 -1.62279,0.9387 -1.76919,0.1377 -1.76874,0.1379 -0.85296,-0.9422 -0.85293,-0.9429 v -1.2345 -1.234 l 0.55025,-0.5501 z m 0.89728,1.8993 v 0.2498 0.2498 h 0.24973 0.24973 v -0.2498 -0.2498 h -0.24973 z m 1.99781,1.9978 v 0.2498 0.2497 h 0.24973 0.24972 v -0.2497 -0.2498 h -0.24972 z m 15.38959,1.249 1.03376,1.2479 1.03423,1.2491 v 0.8439 0.845 l -0.43788,0.2714 -0.43919,0.2712 -0.27555,-1.3658 -0.27554,-1.3652 -0.33155,-0.9985 z m -38.86211,12.0687 v 0.6666 0.6657 l 0.33153,-0.3316 0.33154,-0.3315 -0.33154,-0.3316 z m 18.26272,11.5055 1.51213,0.072 1.54573,0.073 0.76123,0.8741 0.76123,0.8744 0.27556,1.2478 0.27556,1.249 0.37029,1.2165 0.37027,1.2157 -1.87122,-2.071 -1.87122,-2.0717 0.36598,-0.5956 0.37029,-0.5955 -0.54596,0.3358 -0.54553,0.336 z m 7.20804,1.6461 v 0.2496 0.2499 h 0.24974 0.24972 v -0.2499 -0.2496 h -0.24972 z m -7.74108,1.2486 0.68504,0.8744 0.68544,0.8732 h 0.18946 0.18944 v -0.1893 -0.1895 l -0.87404,-0.6855 z m 11.10162,4.4947 0.53217,2.4912 0.53132,2.4904 -0.12055,0.1166 -0.12055,0.1168 -1.62495,-1.4837 -1.6245,-1.4846 0.34444,-0.5536 0.34014,-0.553 0.41335,0.6657 0.40903,0.6648 0.45769,-1.2362 z m 72.28105,0 -0.64369,2.2475 -0.64456,2.2474 -1.00365,3.3899 -1.0045,3.3903 -2.29273,4.601 -2.29274,4.6002 -4.83348,8.7398 -4.83437,8.7401 -2.12525,4.1048 -2.12612,4.105 -1.63399,-1.7324 -1.6344,-1.733 h -1.03162 -1.03207 l -1.15692,0.4478 -1.15563,0.4477 -0.94292,1.782 -0.94337,1.7814 0.82754,1.264 0.8284,1.2638 1.73817,0.7263 1.73819,0.7265 v 0.7336 0.7341 l -0.30139,0.7901 -0.30572,0.7892 h -0.47532 -0.47534 l 0.26264,-0.4263 0.26264,-0.4262 -0.72722,-0.9473 -0.72679,-0.9476 -0.9735,1.2443 -0.97307,1.2437 0.71689,0.7931 0.71774,0.7933 v 0.5609 0.5611 l -0.57952,1.2722 -0.57912,1.272 h -0.40473 -0.40473 l 0.3014,-0.8741 0.30139,-0.8736 -0.80041,0.9989 -0.80084,0.9986 -0.0432,1.608 -0.0431,1.6073 -0.69794,-0.267 -0.69837,-0.2669 -0.27557,0.4432 -0.27555,0.4442 -0.24971,1.3891 -0.25405,1.3902 -0.78405,1.1973 -0.78449,1.1971 h -0.29708 -0.2971 l 0.25404,-0.9761 0.25404,-0.9753 -0.64198,-0.8783 -0.64239,-0.878 -0.74919,0.6218 -0.74917,0.6208 -0.25404,0.9645 -0.25402,0.964 0.69793,0.5797 0.6971,0.5786 -0.0431,1.0622 -0.0431,1.0631 -0.72765,0.9618 -0.72765,0.9628 -0.18515,-0.2153 -0.18512,-0.2111 -0.57868,-1.1125 -0.57825,-1.1122 -1.11257,-0.5382 -1.11171,-0.5385 0.79224,0.6518 0.79179,0.652 0.55285,1.0371 0.55197,1.0377 0.37889,2.7082 0.3789,2.7083 0.27557,-1.2492 0.27556,-1.2477 0.98082,-1.4984 0.98038,-1.4984 1.70202,-2.123 1.70072,-2.1222 h 0.61181 0.61141 l 0.90418,0.9989 0.90332,0.9992 h 0.92184 0.92098 v -0.6724 -0.6717 l 0.99932,-0.9033 0.9989,-0.9042 v -0.9209 -0.9219 h -0.48351 -0.48394 l 0.25832,0.6669 0.25403,0.6666 -0.96359,1.1896 -0.9636,1.1899 -0.80086,-0.6654 -0.8017,-0.6648 0.30141,-1.191 0.30137,-1.1918 h -0.80428 -0.80299 v -0.2841 -0.2842 l 0.50891,-0.9512 0.50937,-0.9511 1.36358,0.5993 1.36358,0.5989 0.366,0.5094 0.36596,0.5097 v -0.6676 -0.6685 l -1.49836,-0.5651 -1.49834,-0.5653 v -0.3919 -0.3917 h 0.9455 0.94554 l 0.3186,-0.8342 0.31862,-0.8339 -0.64154,-0.4048 -0.64067,-0.4047 h 0.66951 0.6691 l 1.3145,1.4979 1.31494,1.4985 h 1.10914 1.10956 l 1.27704,-1.124 1.27706,-1.1235 0.30568,-1.6027 0.31001,-1.6038 -1.55304,-1.553 -1.55347,-1.5526 -1.00192,0.3186 -1.0032,0.3185 v -0.4176 -0.4177 l 1.34034,-1.9883 1.33947,-1.989 0.87361,-0.6284 0.87361,-0.629 0.15933,-1.1195 0.15929,-1.1194 1.1552,0.1249 1.15478,0.1248 0.99588,-0.5329 0.99545,-0.5327 -0.155,-1.3404 -0.155,-1.3394 -1.12377,0.1204 -1.12376,0.1204 v -0.1809 -0.1852 l 3.07422,-5.9291 3.0742,-5.9298 0.83961,-1.2485 0.83959,-1.2492 3.28735,-6.2422 3.28691,-6.2429 2.31468,-5.9252 2.31471,-5.9259 -0.1593,-1.8153 z m -84.13141,0.7492 v 0.2496 0.2498 h 0.24971 0.24973 v -0.2498 -0.2496 h -0.24973 z m 15.48129,1.3317 v 0.6663 0.6658 l 0.33153,-0.3315 0.33153,-0.3317 -0.33153,-0.3357 z m -7.49092,0.6663 h 0.24973 0.24972 v 0.2499 0.2497 h -0.24972 -0.24973 v -0.2497 z m -0.46629,0.6063 -0.49516,0.5964 -0.49557,0.5967 0.28848,1.0967 0.28848,1.0966 -0.8073,1.2322 -0.80688,1.2321 v 0.7409 0.741 l -1.17975,1.2732 -1.18015,1.2726 -1.44197,0.2584 -1.44282,0.2583 -0.99846,-0.5863 -0.99847,-0.5879 -0.36599,-0.542 -0.36598,-0.5422 v -2.011 -2.0115 l 0.73152,-1.0451 0.73196,-1.0445 1.74852,-0.8297 1.74851,-0.8297 2.53084,-0.1808 z m 1.96421,1.3909 h 0.40473 0.40474 l 0.96918,0.7081 0.96877,0.7089 -0.24972,0.1851 -0.24973,0.1851 -1.12376,-0.1809 -1.12378,-0.1808 v -0.7139 z m 6.92603,0.4003 -0.26696,0.267 -0.26694,0.2669 0.32724,0.5326 0.3315,0.5326 h 0.46975 0.47019 v -0.4701 -0.4698 l -0.53261,-0.3271 z m -17.91354,1.5987 v 0.2497 0.2498 h 0.24972 0.24974 v -0.2498 -0.2497 h -0.24974 z m 12.98532,1.4984 v 0.4994 0.4991 h 0.49989 0.49858 v -0.4991 -0.4994 H 761.481 Z m 6.49287,0 v 0.2497 0.2497 h 0.24973 0.24973 v -0.2497 -0.2497 h -0.24973 z m -19.47819,0.4994 v 0.2497 0.2498 h 0.24972 0.24974 v -0.2498 -0.2497 h -0.24974 z m 20.47666,0 v 0.2497 0.2498 h 0.24973 0.24974 v -0.2498 -0.2497 h -0.24974 z m -0.99847,0.3316 v 0.6655 0.6658 l 0.33155,-0.3315 0.33152,-0.3317 -0.33152,-0.3314 z m -13.4852,0.6655 v 0.2498 0.2498 h 0.24973 0.24973 v -0.2498 -0.2498 h -0.24973 z m 6.49288,0 v 0.2498 0.2498 h 0.24973 0.24972 v -0.2498 -0.2498 h -0.24972 z m 7.99079,0 v 0.2498 0.2498 h 0.24973 0.24974 v -0.2498 -0.2498 h -0.24974 z m -0.59674,1.3731 -1.07468,1.1143 -1.07556,1.1143 1.49836,-0.7375 1.49835,-0.7371 1.20858,0.1937 1.20817,0.1938 0.69321,0.9889 0.69278,0.989 h 0.17222 0.17223 l -0.26265,-0.9984 -0.26265,-0.9993 h -0.47058 -0.47105 l 0.25833,-0.4177 0.25403,-0.4176 -0.72634,-0.073 -0.72722,-0.072 -1.29772,-0.073 z m -19.87992,0.1249 v 0.2497 0.2497 h 0.24972 0.24974 v -0.2497 -0.2497 h -0.24974 z m 26.96954,2.4968 v 0.2499 0.2495 h 0.24974 0.24972 v -0.2495 -0.2499 h -0.24972 z m -10.73822,0.7493 0.1378,2.2474 0.13777,2.2476 -1.73431,1.8725 -1.73471,1.8731 h -1.31238 -1.31234 l -1.45961,-1.4597 -1.46004,-1.4601 v -1.013 -1.0141 l 0.58514,-1.2839 0.58514,-1.2848 1.28781,-0.3359 1.28738,-0.3358 2.49769,-0.043 z m 7.24207,0.2496 v 0.2498 0.2497 h 0.24972 0.24971 v -0.2497 -0.2498 h -0.24971 z m 4.49463,0 v 0.2498 0.2497 h 0.24974 0.24972 v -0.2497 -0.2498 h -0.24972 z m -2.49684,0.4991 v 0.2498 0.2496 h 0.24974 0.24972 v -0.2496 -0.2498 h -0.24972 z m 5.49356,0.9993 v 0.2497 0.2497 h 0.24973 0.24972 v -0.2497 -0.2497 h -0.24972 z m -3.96892,0.2712 0.86026,0.6166 0.86112,0.6161 0.74918,0.3316 0.74918,0.3359 0.3918,0.6458 0.39183,0.6463 1.48242,-0.2972 1.48201,-0.297 v 1.4996 1.4987 l -0.75867,0.63 -0.75779,0.6295 -1.86391,0.3315 -1.86347,0.3316 -1.21418,-0.6162 -1.21462,-0.6166 -0.18512,-0.9079 -0.18516,-0.9073 -0.19375,-1.2487 -0.19375,-1.2482 0.73237,-0.9881 z m -9.51542,0.7272 v 0.2499 0.2497 h 0.24971 0.24973 v -0.2497 -0.2499 h -0.24973 z m 4.99451,0.9986 v 0.2496 0.2498 h 0.24973 0.24972 v -0.2498 -0.2496 h -0.24972 z m -1.99825,1.4983 v 0.2498 0.2497 h 0.24973 0.24974 v -0.2497 -0.2498 h -0.24974 z m 15.08604,1.7486 -0.29276,0.9984 -0.29279,0.999 -0.51797,2.747 -0.5184,2.7469 -2.00642,7.4681 -2.00597,7.4685 -0.18085,0.1808 -0.18083,0.1808 -0.23252,-0.409 -0.23249,-0.409 -1.56724,-4.7503 -1.56682,-4.7492 1.00062,-3.6098 1.0002,-3.6085 v -1.0054 -1.0054 h 1.88627 1.88632 l 1.23483,-0.822 1.23486,-0.8223 0.67598,-0.8012 z m -14.46946,9.1007 1.44022,1.5406 1.43895,1.54 v 0.2627 0.267 l -1.28136,-0.4874 -1.28093,-0.4869 h -0.27125 -0.27125 l 0.30139,1.1965 0.3014,1.1966 -0.78621,0.3013 -0.78621,0.3015 h -0.47059 -0.47104 l -0.51537,-1.3539 -0.5141,-1.3541 0.28416,-1.1354 0.28418,-1.136 1.29986,-0.3274 z m 37.34565,12.5047 1.51861,0.6293 1.51859,0.629 0.70053,1.3541 0.70009,1.3536 -0.57438,0.5736 -0.5735,0.5735 h -0.62432 -0.62474 l -0.53605,-0.8736 -0.53648,-0.8741 -0.79784,1.1238 -0.79824,1.1238 h -0.34016 -0.34014 l -0.59977,-0.5995 -0.59935,-0.5993 v -1.3867 -1.3874 l 1.25207,-0.8198 z m 0.99287,6.6114 h 0.24975 0.24972 v 0.2497 0.2498 h -0.24972 -0.24975 v -0.2498 z m 0.99848,0.9994 h 0.24974 0.24972 v 0.2498 0.2496 h -0.24972 -0.24974 v -0.2496 z m 1.0704,3.9952 h 0.69406 0.69365 l 0.97607,1.0474 0.97566,1.0468 -0.19806,1.5749 -0.19807,1.5747 -0.85294,0.6239 -0.85251,0.6247 h -0.59203 -0.59288 l -0.58814,-0.7088 -0.58815,-0.7091 0.85379,-0.4775 0.85382,-0.4783 -0.31,-0.8107 -0.31001,-0.8112 h -0.76469 -0.76468 v -0.4642 -0.4628 l 0.78449,-0.7849 z m -32.53415,2.9962 h 0.52916 0.52916 l -0.31,0.4999 -0.31,0.4986 h -0.21959 -0.21958 v -0.4986 z m 1.49836,0.9985 h 0.24972 0.24974 v 0.2497 0.2497 h -0.24974 -0.24972 v -0.2497 z m 23.47339,0.3315 0.33154,0.3359 0.33152,0.3315 -0.33152,0.3316 -0.33154,0.3315 v -0.6657 z m 2.05636,1.1656 h 0.24972 0.24974 l -0.31001,0.4998 -0.31,0.4995 h -0.24973 -0.24972 l 0.31001,-0.4995 z m -15.08131,8.9895 -2.03526,1.0383 -2.03482,1.0381 -0.24974,0.9597 -0.24973,0.9596 h -0.8159 -0.8155 l -1.24905,0.766 -1.24777,0.766 0.99846,-0.3961 0.99891,-0.3961 h 2.24711 2.2471 v -1.498 -1.4992 l 1.74851,-0.8736 1.74809,-0.8731 -0.64455,-9e-4 z m -1.37993,5.244 v 1.2486 1.2491 l 0.24972,-0.6248 0.25403,-0.6243 -0.25403,-0.6239 z m 0.49342,2.8064 0.51193,1.4682 0.51107,1.4673 0.40473,-0.2497 0.40472,-0.2497 -0.24972,-0.9632 -0.25401,-0.9644 -0.6635,-0.2541 z m 2.42405,0.4405 v 0.2496 0.2499 h 0.24973 0.24974 v -0.2499 -0.2496 h -0.24974 z m 3.24688,0.4438 -0.99934,0.4595 -0.99846,0.4594 -0.74919,0.2797 -0.74917,0.28 0.77845,0.044 0.77844,0.043 0.9692,-0.7764 z m -0.99934,1.6491 v 2.1515 2.1524 l 0.37459,-0.2325 0.37459,-0.2325 v -1.6892 -1.6886 l -0.37459,-0.2324 z m -3.74589,0.9033 v 0.2499 0.2495 h 0.24973 0.24974 v -0.2495 -0.2499 H 789.198 Z m -6.11054,6.992 h 0.75048 0.75047 l 1.66582,0.7 1.66587,0.7002 -1.98317,0.5282 -1.98276,0.5279 -2.23244,0.353 -2.2329,0.353 1.79975,-1.58 z" /></g></g></svg>
