<?xml version="1.0" encoding="UTF-8" standalone="no"?>
<!-- Created with Inkscape (http://www.inkscape.org/) -->

<svg
   width="468.15637"
   height="1230.0931"
   viewBox="0 0 468.15637 1230.0931"
   version="1.1"
   id="svg1"
   xml:space="preserve"
   xmlns:inkscape="http://www.inkscape.org/namespaces/inkscape"
   xmlns:sodipodi="http://sodipodi.sourceforge.net/DTD/sodipodi-0.dtd"
   xmlns="http://www.w3.org/2000/svg"
   xmlns:svg="http://www.w3.org/2000/svg"><sodipodi:namedview
     id="namedview1"
     pagecolor="#505050"
     bordercolor="#ffffff"
     borderopacity="1"
     inkscape:showpageshadow="0"
     inkscape:pageopacity="0"
     inkscape:pagecheckerboard="1"
     inkscape:deskcolor="#505050"
     inkscape:document-units="px"><inkscape:page
       x="0"
       y="0"
       width="468.15637"
       height="1230.0931"
       id="page2"
       margin="0"
       bleed="0" /></sodipodi:namedview><defs
     id="defs1" /><g
     inkscape:label="Layer 1"
     inkscape:groupmode="layer"
     id="layer1"
     transform="translate(1552.3971,-119.84687)"><rect
       style="fill:#ffffff;fill-opacity:1;stroke-width:2.25008"
       id="rect1053"
       width="1080"
       height="1350"
       x="778.31885"
       y="59.893368"
       transform="scale(-1,1)" /><path
       id="path1054"
       style="fill:#000000;stroke-width:1.52435"
       d="m -1141.1331,119.84687 -0.9637,0.96451 -0.9812,0.98119 -4.1999,47.63396 -4.2019,47.64006 -1.9607,24.86227 -1.9628,24.86186 -2.8821,26.96587 -2.8842,26.96505 -8.2532,41.29671 -8.2496,41.29468 -0.4554,5.9608 -0.4558,5.95796 h -1.2791 -1.2791 l -2.3148,-5.08339 -2.3144,-5.08136 h -3.9883 -3.9898 l -1.1566,1.8814 -1.1562,1.88262 2.5057,5.74023 2.5056,5.7386 4.6329,4.47865 4.6362,4.47498 -0.175,4.67195 -0.175,4.66788 -5.1514,20.32584 -5.1497,20.3242 -5.0553,21.34244 -5.0553,21.34039 -4.8429,22.35619 -4.8486,22.35943 -4.0896,19.3068 -4.0952,19.30639 -1.2087,7.62285 -1.227,7.62122 h -1.8871 -1.8904 l 1.8729,-4.92508 1.8696,-4.9202 -2.9123,-2.41818 -2.9122,-2.41859 -3.075,1.17409 -3.075,1.17491 v 4.20109 4.20028 l 2.8841,4.50143 2.8825,4.50306 0.5604,4.06395 0.5608,4.06639 -1.542,7.77017 -1.542,7.77098 -3.0172,-2.50405 -3.0119,-2.5012 2.1166,-2.11988 2.1203,-2.11621 v -3.73105 -3.72942 l -3.2838,-5.01055 -3.2822,-5.0077 h -3.1275 -3.1332 l 3.2716,3.61385 3.2715,3.61425 -0.3499,4.5169 -0.35,4.51201 h -3.6306 -3.6325 v 2.03441 2.03279 l 0.175,1.43699 0.175,1.43699 -3.7111,1.3495 -3.7059,1.34868 -3.5556,-1.84843 -3.5569,-1.84884 v -5.14118 -5.14444 l 2.0833,-3.89506 2.0836,-3.89058 5.5388,-3.00665 5.5372,-3.00502 -2.697,-0.17907 h -2.6982 l -5.9384,5.94372 -5.9433,5.93842 v 5.74674 5.74553 l 4.0281,6.60218 4.0286,6.60869 h 3.4555 3.4551 l 4.8169,-4.52666 4.8172,-4.52626 -1.3495,3.5117 -1.3491,3.5064 h 3.2663 3.2659 v 1.55949 1.55949 l -5.3951,8.09208 -5.3951,8.09493 -0.4554,0.61288 -0.4558,0.61411 -7.515,-5.09926 -7.5122,-5.09764 -6.4447,1.1745 -6.4447,1.19159 -4.4224,2.74701 -4.4209,2.74783 -7.0633,-7.05839 -7.0616,-7.06287 h -6.5656 -6.5676 l 1.1741,-7.24885 1.1741,-7.24803 -2.4336,0.8066 -2.4341,0.8062 -0.35,6.77758 -0.35,6.77229 -3.72,7.6428 -3.718,7.64157 -5.5917,-1.12119 -5.5913,-1.12119 v 3.30293 3.30088 l 3.657,3.55728 3.6553,3.5589 5.4896,0.38255 5.4899,0.38662 v -1.52409 -1.52449 l -2.8211,-3.86209 -2.8231,-3.85843 1.0866,-3.13444 1.0862,-3.13525 4.1144,-4.57306 4.1177,-4.57387 h 5.9018 5.8977 l 5.9401,5.94249 5.942,5.94005 v 10.31899 10.31859 h -1.0866 -1.0861 l -2.0117,-4.57144 -2.0136,-4.57346 1.0166,5.28647 1.0337,5.28891 -1.2791,1.27827 -1.2791,1.27909 -2.7495,-3.52553 -2.7454,-3.52472 1.2087,4.06476 1.2091,4.06679 -5.1127,-5.52983 -5.1078,-5.52861 -0.7712,2.33231 -0.7883,2.33069 -2.8703,-1.77559 -2.8736,-1.77273 -8.1865,0.59539 -8.1848,0.59579 -5.446,3.21217 -5.4456,3.21217 -1.0341,3.92965 -1.0337,3.93046 1.7752,4.66625 1.7715,4.66422 1.9884,1.22619 1.9856,1.22699 -2.3254,-6.16225 -2.3286,-6.16266 2.213,-3.50478 2.2078,-3.50803 7.3262,-2.78608 7.3225,-2.78608 3.6358,1.5774 3.6326,1.57698 2.5179,-0.40696 2.5162,-0.40697 4.088,2.18703 4.0879,2.18825 v 2.27452 2.27453 l -3.7164,-3.36072 -3.7184,-3.36478 h -1.3666 -1.367 v 1.5949 1.59408 l 6.0068,3.55076 6.0121,3.54791 -1.1566,2.99445 -1.1566,2.99322 -11.0987,3.22682 -11.0967,3.22438 -5.4513,-1.34949 -5.4476,-1.34868 2.1886,2.23098 2.1883,2.22853 5.9421,0.36627 5.9433,0.3622 4.7187,-1.61199 4.7208,-1.61239 -3.1963,6.1826 -3.1942,6.17609 v 3.91826 3.91784 l 3.0473,2.52847 3.0486,2.53051 v 8.89909 8.89624 h -2.2864 -2.2867 l 1.2441,-6.2644 1.2616,-6.26359 -2.089,-3.8975 -2.0832,-3.90035 -4.5014,0.24418 -4.5015,0.22383 3.5553,0.9291 3.5568,0.92829 v 3.42542 3.42786 l -4.2629,2.66521 -4.2666,2.6648 0.9812,3.73064 0.9812,3.73268 -4.917,0.92869 -4.9112,0.92829 -1.6999,-3.28787 -1.6995,-3.28827 0.8058,-5.08298 0.8062,-5.07851 4.5226,-3.51251 4.5222,-3.51048 h -2.2269 -2.2253 l -3.6379,4.01837 -3.6374,4.01918 -0.5958,5.49687 -0.5958,5.49361 2.9615,5.72762 2.9627,5.73006 h 6.9391 6.944 l 1.2616,-2.03238 1.2616,-2.03483 h 3.7392 3.7392 l 0.7712,9.65686 0.7708,9.65482 -8.9488,15.80813 -8.9467,15.80934 -4.3227,-1.2974 -4.3265,-1.29659 -7.1841,-6.87851 -7.1874,-6.88095 -0.2279,-3.56949 -0.2442,-3.56948 -1.2791,-6.09755 -1.2791,-6.09795 -4.2247,-15.24245 -4.2214,-15.24448 -0.6833,-2.41981 -0.6833,-2.42347 -5.2531,-3.4417 -5.2551,-3.44454 -6.5412,1.84517 -6.5411,1.84681 -3.3676,6.69171 -3.3644,6.69701 -21.025,-24.02474 -21.0218,-24.01944 -6.3112,-8.12586 -6.3136,-8.12138 -2.3986,-4.57387 -2.3971,-4.57265 1.9168,-3.58495 1.9205,-3.58658 -2.8402,-6.75398 -2.8406,-6.75398 -2.5615,0.89369 -2.5634,0.89329 0.175,5.41954 0.175,5.41751 -1.367,-0.54248 -1.3666,-0.5433 -10.0577,-12.19591 -10.0561,-12.19387 -8.9801,-13.06478 -8.9788,-13.06071 -9.6528,-14.14445 -9.6549,-14.14568 v -0.92869 -0.92828 l -3.825,-5.39513 -3.8287,-5.39391 -13.7762,-26.42338 -13.7725,-26.42013 1.2791,6.54155 1.2791,6.54399 9.5515,16.83041 9.5514,16.83002 13.3049,21.34039 13.3065,21.3404 8.202,11.79993 8.2023,11.79912 18.8608,25.583 18.8628,25.5826 5.3215,6.31487 5.3165,6.31893 -5.8891,1.03328 -5.8876,1.0341 v 2.80724 2.80521 l 4.0636,2.25295 4.0631,2.25703 1.367,1.8993 1.3666,1.90296 3.0998,-2.57038 3.0962,-2.57161 2.9822,1.68117 2.9839,1.68239 6.2697,7.90284 6.2676,7.9004 v 1.84396 1.83988 l -2.5406,-0.32964 -2.5391,-0.32964 -2.5423,0.24825 -2.539,0.24418 v 2.99525 2.99363 l 5.9803,3.09822 5.9836,3.09253 1.2445,-2.0275 1.2437,-2.02383 h 2.8581 2.8581 l 7.1837,6.30835 7.1842,6.30836 v 2.95741 2.95741 l -2.5387,-1.45368 -2.539,-1.45449 1.577,1.73448 1.577,1.73489 3.0644,0.45499 3.0648,0.45498 7.8817,6.77718 7.885,6.77352 0.175,1.06828 0.175,1.06869 -6.38,7.74168 -6.38,7.73802 -3.7848,-0.9816 -3.7884,-0.9816 1.1391,1.84315 1.1391,1.84192 h -6.9371 -6.9355 l -5.6283,-5.21403 -5.63,-5.21647 1.0691,-7.99726 1.0687,-7.99359 -1.8399,1.13868 -1.8395,1.13869 v 7.34245 7.34164 l -3.3574,3.70907 -3.3591,3.71315 0.1913,6.59404 0.175,6.59933 4.4123,3.5703 4.4119,3.57315 h 8.4144 8.414 l 6.152,-3.7518 6.1574,-3.75466 7.9798,-10.46468 7.9813,-10.46794 h 2.485 2.4829 l 5.8016,7.03886 5.7997,7.03641 5.8175,17.50232 5.8176,17.4958 -1.2091,16.62369 -1.2091,16.61757 -3.0245,15.24448 -3.0258,15.24285 -2.3291,17.52918 -2.3286,17.53121 h -5.0358 -5.0411 l -5.5668,5.3353 -5.5706,5.33409 h -1.1741 -1.1736 l -1.1566,-4.39481 -1.1566,-4.39115 1.9766,-3.69157 1.9746,-3.68873 -2.686,1.03369 -2.6863,1.0341 -5.5913,-16.55898 -5.5881,-16.55978 1.0166,-1.01701 1.0162,-1.01537 5.2499,1.31327 5.2478,1.3145 2.1378,5.53146 2.1377,5.53593 -0.9816,8.91008 -0.9811,8.91171 1.7837,-2.81416 1.7804,-2.81375 v -8.36597 -8.36271 l -4.3594,-5.54408 -4.3614,-5.54082 -5.6055,0.8237 -5.6104,0.82329 -3.2085,-6.73404 -3.2118,-6.73201 h -2.0641 -2.0662 v 2.59684 2.59684 l 3.3611,4.80015 3.3607,4.79689 -2.4849,3.98174 -2.4861,3.98051 1.1562,1.1566 1.1566,1.157 v -2.53905 -2.54312 l 2.248,0.75329 2.2448,0.7541 3.0014,8.0579 3.0018,8.06074 1.0337,4.33132 1.0337,4.33214 -3.1593,5.82976 -3.1572,5.83099 -0.175,-2.39539 -0.175,-2.39743 -3.48,-3.47751 -3.4799,-3.48077 -0.7187,-3.27077 -0.7358,-3.26955 v -7.11618 -7.11252 l -1.1041,2.64079 -1.1037,2.64039 -4.9975,-3.27118 -4.9955,-3.27484 -5.4704,0.84119 -5.3569,0.8237 -19.4602,-23.72887 -26.7038,-32.56855 1.1737,-5.58274 1.1741,-5.58111 -2.1867,-3.04938 -2.1833,-3.04857 -1.0337,2.53905 -1.0341,2.5419 h -1.4716 -1.472 l -9.2747,-12.70339 -9.2743,-12.7034 -11.3425,-20.95337 -11.3437,-20.95419 -1.2616,-3.94145 -1.2441,-3.94593 h -1.8961 -1.896 v 1.71739 1.71739 l 3.333,6.9188 3.3327,6.92003 10.3873,17.20889 10.3837,17.21052 13.7338,20.30305 13.7375,20.29776 -3.0013,1.68198 -2.9981,1.68239 -4.2528,-4.25441 -4.256,-4.25481 -4.2894,0.6312 -4.2878,0.62998 -0.9462,3.04939 -0.9462,3.04898 1.5595,-1.45409 1.5595,-1.4549 3.5304,1.88791 3.5308,1.88995 -0.9812,5.15339 -0.9812,5.15339 3.7917,0.24824 3.7937,0.24418 1.472,-0.22383 1.4716,-0.22383 -2.3059,5.06386 -2.3074,5.06589 h -4.5857 -4.5889 l -4.239,-5.58965 -4.2385,-5.59169 1.2966,4.06679 1.3141,4.06517 3.1523,2.53946 3.1556,2.5423 h 7.491 7.4942 l 2.5863,-3.12101 2.5899,-3.11857 -0.175,-5.99092 -0.175,-5.99296 1.717,-1.06828 1.7174,-1.0695 6.4992,8.20766 6.4988,8.20562 -0.8762,4.53114 -0.8761,4.53155 3.9797,4.04034 3.9825,4.04157 -1.1391,-4.69108 -1.1387,-4.68945 1.717,0.6312 1.7174,0.61289 7.1789,9.10501 7.1808,9.10786 -4.4876,4.90637 -4.4892,4.90636 5.267,-3.36397 5.264,-3.36152 10.7166,12.32166 10.7203,12.3241 -0.8412,0.84038 -0.8412,0.8416 -12.0905,-6.32382 -12.0901,-6.32748 -11.686,-8.83438 -11.6888,-8.83683 v 1.80652 1.80489 l 7.5431,6.61968 7.5451,6.62578 -0.5958,6.84067 -0.5954,6.84188 7.0682,7.0706 7.0706,7.07223 h 5.2844 5.2848 v -1.75402 -1.75401 l -4.6573,0.50789 -4.6593,0.50789 -3.4503,-2.52074 -3.4498,-2.52521 -3.0701,-7.34693 -3.0698,-7.34978 v -2.32987 -2.33027 l 4.8291,3.16414 4.829,3.16415 13.2996,7.0531 13.2992,7.05636 -1.1912,1.19159 -1.1916,1.19118 h -3.6622 -3.6623 l 1.297,3.38188 1.2966,3.38187 -2.4007,-1.48867 -2.3954,-1.47281 -9.3077,4.64916 -9.306,4.64713 -2.5969,5.13874 -2.5968,5.13792 -1.2791,7.11333 -1.2791,7.11618 4.0249,6.603 4.0281,6.60542 h 9.2674 9.2694 l 5.2132,-5.21279 5.2128,-5.2128 2.9383,4.19824 2.9387,4.19499 h 2.2322 2.2343 l -3.3644,-3.7164 -3.3644,-3.71843 v -6.09063 -6.08941 l 4.9239,-4.62556 4.9202,-4.62393 8.1323,1.36659 8.1267,1.36699 1.1041,2.89637 1.1037,2.89921 h 2.9928 2.9928 l 1.472,2.37627 1.472,2.37952 -3.6081,-1.38368 -3.6094,-1.38449 1.2966,3.35745 1.2966,3.35868 -3.0946,-2.56876 -3.0962,-2.56672 v 1.87285 1.87488 l 2.5391,2.65341 2.5443,2.65219 -7.1158,-1.47159 -7.1141,-1.47199 -2.5391,-2.04459 -2.5423,-2.04866 v 3.22072 3.21909 l 8.1935,2.20615 8.1897,2.20575 -1.0512,1.69948 -1.0512,1.69949 -9.3431,-0.175 -9.343,-0.17906 -5.9279,5.59497 -5.9274,5.5933 v 7.1451 7.1458 l 6.9106,6.9115 6.9091,6.9082 h 6.1451 6.1452 l 5.8542,-5.8525 5.8521,-5.8554 3.8393,2.8064 3.8373,2.804 h 2.9403 2.9456 l 2.7002,3.5552 2.7002,3.5589 0.175,5.0814 0.175,5.0801 3.8865,8.5609 3.8865,8.5602 -6.0523,-1.2095 -6.0487,-1.2087 -4.9955,4.6923 -4.9939,4.6886 v 5.8461 5.8436 l 3.1031,5.9962 3.0999,5.9958 h 3.5043 3.506 l 5.0798,-2.9053 5.0817,-2.9033 h 3.3416 3.3359 l 5.199,15.7524 5.1989,15.7527 1.8993,8.556 1.8998,8.5601 -2.7108,16.8455 -2.7092,16.8479 -3.2362,23.2853 -3.2366,23.2877 -0.6483,0.6483 -0.6483,0.6479 -2.0445,-2.5891 -2.0414,-2.5899 -6.4833,-18.9279 -6.4834,-18.9222 -0.175,-12.0519 -0.175,-12.0518 -1.7646,-1.0866 -1.7662,-1.0862 -2.0271,3.7864 -2.0238,3.7852 2.7686,13.2328 2.7685,13.2361 3.0014,9.965 3.0034,9.9681 5.297,13.9605 5.2987,13.9593 -0.175,10.4297 -0.175,10.4293 -2.7315,22.9052 -2.7283,22.9035 -12.7075,22.8266 -7.9793,14.3297 c 0.3866,1.9396 0.9287,3.8515 1.4366,5.7597 1.6824,6.1708 0,-0.175 1.6999,6.2681 0.175,0.3622 0.2116,0.735 0.297,1.1033 l 4.7221,-6.8692 6.2119,-9.0236 1.9501,1.2095 1.9502,1.2087 9.6109,-5.912 9.6076,-5.9103 6.0979,-1.6641 6.096,-1.6653 12.9927,0.293 12.9928,0.2971 2.5305,2.0995 2.5353,2.1028 5.1937,-2.3681 5.1986,-2.3673 1.2441,-3.2305 1.2445,-3.2256 -3.191,-2.336 -3.1927,-2.3343 6.6376,-2.5151 6.6392,-2.5158 12.7966,-5.2002 12.7946,-5.2026 1.1216,-1.8241 1.1216,-1.8215 -0.9287,-0.9291 -0.9287,-0.9291 -11.9839,5.8896 -11.9798,5.8912 -4.5735,1.4016 -4.5714,1.4015 v -3.1857 -3.1853 h 1.5245 1.5245 l 6.0975,-5.2376 6.098,-5.2389 -6.7707,4.4856 -6.767,4.4876 h -5.0028 -5.0044 l -1.1916,-1.192 -1.1912,-1.1733 5.3353,-6.3417 5.3357,-6.3393 -0.175,-3.3998 -0.175,-3.401 -2.008,5.0236 -2.0047,5.0256 -3.6903,3.4376 -3.692,3.4397 -3.8283,0.4069 -3.8287,0.4029 -3.3978,-0.2238 -3.3941,-0.2238 -1.3141,-5.9572 -1.314,-5.9539 -2.9701,-2.4653 -2.9647,-2.4618 -1.297,1.2962 -1.2966,1.297 -3.8145,-6.2717 -3.8128,-6.2734 1.1216,-3.5235 1.1212,-3.5251 4.1197,-4.4241 4.1193,-4.4249 h -1.9466 -1.9432 l -4.2316,6.8443 -4.23,6.8472 v 5.8566 5.8599 l 4.009,6.0975 4.011,6.0976 3.2065,4.3651 3.2065,4.3659 -7.666,7.4491 -7.6697,7.447 -12.0498,8.0445 -12.0449,8.044 -0.8587,-0.8583 -0.8412,-0.8587 6.4573,-11.4434 6.4602,-11.4455 0.7537,-12.2321 0.7533,-12.2346 0.9987,-9.5551 0.9991,-9.5563 2.0079,-17.2736 2.0096,-17.2773 0.8412,-4.0635 0.8412,-4.0664 1.6295,-10.1615 1.6295,-10.1611 -0.3663,-1.5774 -0.3663,-1.577 3.1715,-1.227 3.1698,-1.2087 4.7803,4.4897 4.7765,4.4892 4.6121,-0.6829 4.6154,-0.6841 0.8408,-2.5545 0.8412,-2.5566 -5.8912,-1.1741 -5.8945,-1.174 0.8937,-6.0439 0.8937,-6.0426 -4.3594,-1.1395 -4.3562,-1.1383 2.3043,-2.7755 2.3026,-2.7726 -1.262,-3.2871 -1.2616,-3.2837 -3.1906,1.2261 -3.1963,1.227 1.3495,-6.6042 1.3491,-6.6018 7.8955,-33.5371 7.8992,-33.5359 2.2655,-9.1449 2.2693,-9.1465 2.8666,-17.2769 2.8683,-17.2769 3.2468,-14.2246 3.2488,-14.2283 0.6833,-8.18443 0.6833,-8.18853 1.1915,-9.08914 1.1916,-9.08996 1.8468,-16.26107 1.8452,-16.25904 1.3841,-3.55687 1.3845,-3.55606 h 0.4904 0.4733 l 6.1696,3.07584 6.1679,3.07909 3.3502,-1.27909 3.3521,-1.27909 -1.1566,-3.65372 -1.1566,-3.65332 2.115,-1.3145 2.1166,-1.31408 v -11.05641 -11.06007 l -5.5912,0.2808 -5.5881,0.28081 4.5735,0.87619 4.5718,0.8762 v 7.82022 7.82511 l -1.2265,3.21258 -1.2441,3.21502 h -4.8629 -4.864 v -1.52449 -1.52449 l 1.8134,-2.86503 1.8139,-2.86258 -1.0691,-2.78852 -1.0687,-2.78242 -3.8234,1.20909 -3.8271,1.20869 v -3.06974 -3.06973 l 4.5734,-3.3953 4.5735,-3.39775 -4.5735,1.06869 -4.5734,1.05119 -0.175,-9.46558 -0.175,-9.46396 -0.8058,-12.1951 -0.8237,-12.19387 -1.2441,-43.63431 -1.2441,-43.63635 -0.7708,-0.77039 -0.7712,-0.7716 -2.388,1.47158 -2.3832,1.47281 1.3141,8.23004 1.3145,8.23207 1.2791,44.8662 1.279,44.86375 -0.175,7.11211 -0.1749,7.11618 -0.2605,6.54114 -0.2808,6.54073 -3.049,-1.17328 -3.049,-1.1745 v 3.67448 3.67449 l -2.3726,-2.37627 -2.3722,-2.37219 2.4687,-8.23941 2.4637,-8.23492 -1.0691,-1.75239 -1.0861,-1.75239 -4.097,-1.06909 -4.0965,-1.06869 v 1.68239 1.66408 l 1.8644,0.6841 1.8663,0.6837 -1.0691,5.49647 -1.0687,5.49483 -5.9877,-1.20909 -5.9872,-1.19119 1.4016,5.58233 1.402,5.58233 -4.8502,-1.45367 -4.8486,-1.45449 -2.5407,-3.22967 -2.539,-3.23456 0.1749,-4.18278 0.175,-4.18603 2.4829,-3.04898 2.4833,-3.04857 3.0401,-0.7187 3.0436,-0.7187 h 4.7904 4.7892 l -2.5899,-1.59408 -2.5883,-1.59489 -4.7416,1.80163 -4.7432,1.80448 v -1.47158 -1.47199 l -3.974,5.08176 -3.976,5.07932 v 5.37926 5.37803 l 7.384,6.48498 7.3839,6.48335 6.5412,-1.22659 6.5448,-1.22618 5.4932,7.92848 5.4948,7.92848 -3.4958,19.56074 -3.4922,19.55993 -3.7323,-3.37903 -3.7302,-3.37617 v -2.87887 -2.87846 l 3.0665,-3.07014 3.0661,-3.06647 -1.1562,-1.8696 -1.1566,-1.86797 h -2.9298 -2.9297 v -6.96885 -6.97049 l -6.9249,-7.34164 -6.9282,-7.34489 -5.7756,1.36659 -5.7752,1.36658 -1.8977,1.73489 -1.8924,1.73408 6.8651,-1.9693 6.8687,-1.96768 4.3912,2.87887 4.3948,2.87602 1.2266,7.57238 1.2266,7.57565 -1.0166,1.64657 -1.0162,1.64658 -3.9899,-3.98866 -3.9931,-3.99028 h -2.0308 -2.0328 v 5.97871 5.98156 l -4.5734,-0.87578 -4.5731,-0.8762 -2.6864,-3.58128 -2.6843,-3.58007 1.0687,-7.11414 1.0691,-7.11333 -2.1044,3.66145 -2.1065,3.66635 1.3845,8.23695 1.4016,8.239 3.8499,3.84988 3.8495,3.84907 h 6.7462 6.7495 l 4.9397,5.52332 4.9394,5.52454 3.5414,5.14444 3.543,5.14851 v 10.05405 10.05487 l -5.1725,-10.37922 -5.1709,-10.378 -2.9594,-1.13909 -2.9562,-1.13909 v 1.03409 1.03369 l 5.0813,5.481 5.0797,5.48059 v 4.34475 4.34312 l -3.0485,2.53051 -3.049,2.53053 v 3.0843 3.0852 l -3.5552,2.6998 -3.5573,2.697 h -4.4087 -4.4066 l -6.2379,-3.5577 -6.2363,-3.5552 -2.8614,-7.11538 -2.8597,-7.11293 2.469,-6.09754 2.4707,-6.09755 4.9393,-2.60254 4.9361,-2.59847 6.6079,0.66621 6.6021,0.66538 v -1.62948 -1.62949 h -5.9628 -5.9661 l -5.4513,2.07267 -5.4513,2.07145 -4.7468,-5.11961 -4.7452,-5.12206 h -2.078 -2.0816 l 1.0862,-5.59128 1.0866,-5.58803 -3.2854,-4.06354 -3.2875,-4.0672 2.3169,4.76311 2.3164,4.76026 -1.1216,4.38627 -1.1216,4.38219 -7.6851,3.55524 -7.6888,3.55687 4.0652,-1.29659 4.0635,-1.29618 5.1603,-0.8937 5.1551,-0.8941 4.6292,3.75018 4.6296,3.74814 -2.1642,5.69832 -2.1675,5.69506 v 5.57622 5.57623 l 2.8581,3.90967 2.8597,3.9053 -3.0823,5.9575 -3.0824,5.958 1.0166,7.6126 1.0162,7.6111 -1.8293,2.2017 -1.8313,2.2029 1.3495,-0.9812 1.349,-0.9812 2.7267,2.2639 2.7263,2.2656 v 6.3552 6.3571 l -2.1167,7.6221 -2.1166,7.6208 h -1.437 -1.437 l -2.3217,-5.5884 -2.325,-5.5913 -1.0337,-5.0777 -1.0341,-5.0834 -1.1916,-4.5731 -1.1911,-4.5714 -0.8937,-4.0355 -0.8937,-4.0301 2.8035,-1.5778 2.802,-1.5762 4.0053,-8.9418 4.0005,-8.9402 -1.0862,-2.8227 -1.0866,-2.8195 -1.0337,1.0341 -1.0516,1.0337 -0.3174,4.6386 -0.3174,4.6361 -2.3848,-0.4749 -2.3849,-0.4904 1.1741,3.051 1.1741,3.0486 -2.4898,3.0018 -2.4882,2.9993 -2.1166,-1.3137 -2.117,-1.3145 1.4195,2.2868 1.4195,2.2863 -5.1815,1.297 -5.1815,1.2974 -5.0638,-3.3192 -5.0659,-3.3209 v -8.2166 -8.2178 l 2.1186,-3.9594 2.1199,-3.96052 -1.612,0.26045 -1.612,0.26046 -2.539,-0.24418 -2.5407,-0.24825 v -1.98028 -1.97826 l 6.485,-3.35379 6.485,-3.35583 -3.8267,-2.79422 -3.8218,-2.79666 h 2.1817 2.185 l 1.0687,-4.06394 1.0691,-4.05866 -1.8436,-1.1395 -1.8415,-1.13909 -0.2116,3.6757 -0.2075,3.67855 -2.0255,-7.62244 -2.0238,-7.62245 h -1.542 -1.542 l 1.0337,5.38292 1.0341,5.38292 -2.3254,-1.43658 -2.3287,-1.43699 v -4.96049 -4.96212 h 3.049 3.0486 v -1.7003 -1.69948 l -1.3316,-1.33159 -1.3316,-1.33199 -3.0209,2.50812 -3.0209,2.50364 4.2719,-8.37044 4.2703,-8.36841 3.3013,-1.26199 3.3013,-1.26078 h 5.5229 5.5266 l 2.2444,2.244 2.2448,2.244 1.437,-15.96195 1.4366,-15.96562 20.3523,-19.30884 20.3486,-19.30761 6.0715,-8.82095 6.0699,-8.82258 -2.1903,-2.18866 -2.1887,-2.18865 -1.4195,3.89506 -1.4191,3.89709 -6.2574,8.12992 -6.2555,8.13237 -4.0753,3.34566 -4.0794,3.34647 -6.098,5.40896 -6.0975,5.411 -5.8436,3.11409 -5.8473,3.11694 1.4541,-11.64366 1.4545,-11.64203 2.8455,-9.37442 2.8475,-9.37605 v -5.0134 -5.01299 l 3.4291,-9.21489 3.4327,-9.2153 6.4447,-12.1951 6.4463,-12.19346 6.706,-12.19632 6.7039,-12.19347 6.1452,-9.14652 6.1415,-9.14693 6.7462,-7.98668 6.7442,-7.98871 v -2.29935 -2.29975 l 6.0174,-4.44894 6.0137,-4.44405 h 3.1312 3.1296 v -2.03441 -2.03238 h -4.0164 -4.0196 l -3.3273,-5.07973 -3.3294,-5.08177 h -1.7524 -1.752 l 1.8151,4.77166 1.8139,4.77329 -2.4182,4.88153 -2.4166,4.87991 -8.661,2.75434 -8.6578,2.75474 -7.0653,-1.33159 -7.0612,-1.33159 -3.3925,-5.17821 -3.394,-5.17821 3.6708,-6.81381 3.6712,-6.81462 6.4585,-3.06485 6.4569,-3.06281 4.9662,0.47533 4.9658,0.47493 5.083,2.76329 5.0817,2.76125 -4.2002,-4.84613 -4.1983,-4.8502 0.175,-3.04735 0.175,-3.04857 11.1793,-0.5433 11.1793,-0.54411 4.3472,-2.21796 4.3488,-2.21429 2.2131,-4.85875 2.2151,-4.85915 h 3.1397 3.1455 l 1.8834,4.95683 1.8855,4.95682 4.0285,2.15935 4.0265,2.15529 h 7.4507 7.445 l 5.8982,-6.31202 5.8981,-6.31487 v -7.79418 -7.7954 l 2.0307,-1.262 2.0345,-1.26118 v -3.90604 -3.90564 l 5.0813,-1.27909 5.0798,-1.27909 4.8416,1.20909 4.8396,1.20909 6.3393,-2.21307 6.3381,-2.20778 v -2.84916 -2.84916 l -3.5569,-0.24824 -3.5589,-0.24418 -2.539,0.32964 -2.5407,0.32964 v -1.06869 -1.06909 l 8.6386,-4.29999 8.6366,-4.29836 25.8032,-15.36819 25.8036,-15.36535 11.7189,-9.19414 11.7153,-9.1978 -2.4426,-0.80538 -2.4426,-0.8237 -3.2134,3.21298 -3.2117,3.21624 -19.6707,12.96752 -19.6706,12.96832 -13.3802,7.35426 -13.3802,7.35425 h -1.6645 -1.6644 l 3.6114,-3.99029 3.6077,-3.98906 -1.1916,-3.12264 -1.1916,-3.12223 h -1.717 -1.6999 l -3.7127,2.7116 -3.7095,2.7112 -0.5083,6.54521 -0.5083,6.54399 -1.2091,1.20868 -1.2086,1.20909 -10.3874,3.51495 -10.3906,3.52024 -2.0694,-1.03328 4.1559,-3.52919 4.7574,-4.03912 -1.1037,-6.81259 -1.1041,-6.80973 -2.3779,-2.86625 -2.3827,-2.86666 h -7.2404 -7.2403 l -5.0325,4.57306 -5.0288,4.57265 1.3495,-3.73105 1.349,-3.73064 1.2616,-11.51221 1.2616,-11.51384 2.8561,-4.57183 2.8544,-4.57266 h 4.7103 4.7081 l 2.3848,-5.23437 2.3848,-5.23356 -1.244,-2.01366 -1.2441,-2.01163 -3.3522,2.87236 -3.3554,2.8695 -3.7185,1.33159 -3.718,1.31449 1.1037,-5.58599 1.1041,-5.58803 3.2663,-18.29142 3.2696,-18.29183 4.2104,-18.29304 4.2125,-18.29143 2.8703,-5.69831 2.8699,-5.69832 3.7848,0.6133 3.7831,0.61289 5.2515,-4.92549 5.2551,-4.92671 v -2.6937 -2.69858 h -5.0028 -5.0044 l -4.1405,4.45137 -4.1441,4.44894 v -2.92119 -2.92119 l 5.8912,-24.39304 5.8929,-24.39426 3.2325,-25.40597 3.2349,-25.40435 2.6982,-9.14652 2.7039,-9.14652 6.6986,0.54329 6.697,0.5433 -1.1562,-3.02456 -1.1565,-3.02049 1.9395,-1.20909 1.9449,-1.19118 v -3.1963 -3.19467 l -6.9159,1.122 -6.916,1.12119 0.5608,-4.41272 0.5608,-4.41516 3.1662,-18.29142 3.1662,-18.29183 3.189,-35.57031 3.1889,-35.56462 2.266,-28.45698 2.2656,-28.45454 2.502,-28.45251 2.5057,-28.45617 -0.7008,-0.84079 z m -257.969,498.69985 -3.0909,1.19159 -3.0856,1.19241 1.8065,3.3721 1.8065,3.37577 4.3911,12.17394 4.3928,12.17434 2.7108,8.637 2.7104,8.6366 h -2.4426 -2.4442 l -2.262,-2.26232 -2.2586,-2.26028 -2.2131,1.367 -2.2098,1.36658 v 2.67946 2.68067 l 3.0278,2.5126 3.0262,2.5126 -1.2441,2.01854 -1.2441,2.01895 4.0037,-1.262 4.0058,-1.26158 5.3935,5.39349 5.3967,5.39513 v 2.36365 2.36731 l -2.2236,2.22203 -2.22,2.21999 3.3941,5.17781 3.3904,5.17821 -7.338,-2.02628 -7.3367,-2.02708 -3.4922,1.10368 -3.4921,1.1045 -2.8232,4.59382 -2.8243,4.59585 4.0037,-3.55606 4.0074,-3.55605 h 4.0058 4.0053 l 2.4393,2.43975 2.4373,2.4369 v 2.57934 2.57731 l -2.8894,-1.10328 -2.8947,-1.1045 -2.194,4.10016 -2.1935,4.10057 2.0393,1.26159 2.036,1.262 v 2.24929 2.25214 l -1.3316,-1.3324 -1.3316,-1.33118 -2.6387,2.19028 -2.6408,2.18907 -2.2619,-1.4024 -2.2623,-1.402 -1.7626,-4.36469 -1.7593,-4.36469 -0.175,3.69076 -0.175,3.68954 2.1008,3.93046 2.1064,3.93331 h 6.7935 6.7914 l 2.3429,-2.82311 2.3408,-2.81904 7.526,1.69948 7.5256,1.7003 0.7012,2.14104 0.7008,2.13941 h 2.1183 2.1186 l -1.5595,-6.60544 -1.5595,-6.60585 -0.2116,-6.09836 -0.2279,-6.09714 6.7687,-2.97735 6.7727,-2.98061 -1.3495,-9.21326 -1.3491,-9.21897 -3.5345,-6.09755 -3.5341,-6.09754 -4.943,0.70079 -4.9413,0.7012 -2.59,2.12354 -2.5895,2.12191 -0.7537,-0.80579 -0.7533,-0.78829 -5.1953,-16.26107 -5.1957,-16.25904 -4.326,-13.21048 -4.326,-13.21372 -0.7712,-2.50487 z m 187.906,9.07653 h 9.1168 9.1189 l 1.8732,7.58378 1.8749,7.58215 -3.906,4.61213 -3.4202,4.03749 -3.7237,-1.8582 -5.9083,-2.94764 v -3.0445 -3.04572 l -3.1507,-3.15031 -3.1524,-3.15031 0.6483,-3.31066 z m -11.0267,25.40597 h 6.1256 6.1313 l 4.4384,2.33801 4.4384,2.33516 1.4894,2.23586 1.4895,2.23587 v 4.35614 4.35574 l -2.5411,0.8237 -2.5406,0.82329 -10.1452,-3.45676 -10.1473,-3.4535 -3.7481,2.00471 -3.7445,2.00593 -1.1216,-1.12119 -1.1212,-1.122 5.4688,-7.16827 z m -48.7963,16.25904 h 6.741 6.7406 l 5.5229,5.52454 5.5269,5.52332 -1.2265,6.13662 -1.2266,6.1358 -2.9265,2.92607 -2.9277,2.92648 -10.3805,0.4554 -10.3853,0.47452 1.2441,-3.24961 1.2441,-3.2545 -3.8059,3.44496 -3.806,3.44129 h -0.9637 -0.9636 l 0.2645,-10.67102 0.2604,-10.67142 0.35,-2.2147 0.35,-2.21103 5.1778,-2.36121 z m 42.4932,0 h 5.9649 5.9645 l 5.6792,2.16057 5.6824,2.15814 1.5245,2.41492 1.542,2.41127 v 5.20792 5.20385 l -4.1441,4.44853 -4.1442,4.45097 -2.4601,0.175 -2.4617,0.17906 -4.1881,0.47533 -4.1896,0.47493 -2.3393,-4.95682 -2.3408,-4.95683 4.3769,-3.54344 4.3736,-3.54303 -4.4506,-2.38278 -4.4526,-2.38115 v -3.9915 z m -158.5334,4.0668 h 1.0166 1.0162 v 1.01619 1.01659 h -1.0162 -1.0166 v -1.01659 z m 146.3379,4.06353 h 1.0166 1.0162 v 1.0166 1.01578 h -1.0162 -1.0166 v -1.01578 z m -60.9742,2.03238 v 2.03116 2.03401 h 2.0311 2.0324 v -2.03401 -2.03116 h -2.0324 z m 8.1271,0 v 2.03116 2.03401 h 2.0344 2.0323 v -2.03401 -2.03116 h -2.0323 z m -78.8295,2.03116 h 5.0549 5.0517 l 1.0691,4.0668 1.0687,4.06395 h 1.7943 1.798 v 6.77351 6.77596 l -1.2616,1.26159 -1.2616,1.26159 -3.1524,-3.15154 -3.1539,-3.15438 -3.5834,4.74806 -3.5853,4.75253 -2.2041,-5.79599 -2.2042,-5.80046 0.7358,-4.33987 0.7358,-4.33906 1.542,-3.55727 z m 99.1553,5.42118 -1.3491,1.34949 -1.3495,1.34909 h 2.7092 2.7087 l -1.3491,-1.34909 z m -32.5197,4.74317 h 1.0162 1.0166 v 1.01619 1.01659 h -1.0166 -1.0162 v -1.01659 z m -12.1955,6.09795 v 3.04898 3.04735 h 2.0344 2.0344 v -3.04735 -3.04898 h -2.0344 z m 64.0232,4.0672 8.6403,4.27516 8.6366,4.27598 v 2.15691 2.1622 l 1.5245,-1.5428 1.5244,-1.54118 -6.0979,-4.88845 -6.0976,-4.88927 h -4.0635 z m -37.5994,1.34868 1.3491,1.3495 1.349,1.34949 -1.349,1.34949 -1.3491,1.34909 v -2.70957 z m -12.1955,2.70957 v 1.01619 1.01619 h 1.0162 1.0161 v -1.01619 -1.01619 h -1.0161 z m -58.9403,2.03238 h 1.0166 1.0162 v 1.01619 1.01619 h -1.0162 -1.0166 v -1.01619 z m -10.6673,7.95493 1.2616,3.30252 1.2616,3.30211 v 1.64658 1.64739 l -5.0798,-0.29302 -5.0797,-0.29708 v -1.2095 -1.20868 l 3.8165,-3.45025 z m 136.6794,0.175 v 1.01619 1.0166 h 1.0162 1.0166 v -1.0166 -1.01619 h -1.0166 z m -168.6929,1.34949 v 2.70876 2.71079 l 1.3491,-1.3495 1.3495,-1.34868 -1.3495,-1.3499 z m 170.9674,4.55515 -4.186,2.61475 -4.1861,2.61434 v 1.5424 1.54158 h -5.201 -5.2006 l 1.1741,1.91029 1.1741,1.9111 6.098,-2.12517 6.0938,-2.12191 2.1097,-3.94592 z m -146.9687,21.91178 6.264,0.175 6.2644,0.17499 1.9433,1.192 1.9432,1.20868 1.3666,9.07531 1.367,9.0749 -1.2616,3.30333 -1.2616,3.30089 -2.8597,-2.37301 -2.8614,-2.37627 -1.7874,3.19467 -1.7853,3.19101 -5.49,-5.73006 -5.4915,-5.73169 v -5.98685 -5.984 l 1.8085,-2.85974 z m 77.4364,2.66562 h 12.4091 12.4059 l -1.5244,2.53864 -1.5066,2.54068 -7.994,10.66979 -7.9936,10.67102 h -0.7183 -0.7008 l -1.7858,-3.55525 -1.789,-3.55686 -0.4029,-9.65523 z m -28.2669,12.19509 v 1.0166 1.01619 h 1.0161 1.0162 v -1.01619 -1.0166 h -1.0162 z m -69.1046,6.09633 v 2.03075 2.03401 h 0.8937 0.8937 l 1.2615,-2.03401 1.2616,-2.03075 h -2.1536 z m -4.1617,1.26159 -3.508,3.67448 -3.5096,3.67448 4.7484,-2.43609 4.7452,-2.43527 -1.2441,-1.2445 z m 46.6532,2.68637 2.0153,7.68186 2.0133,7.68349 1.349,5.58762 1.3491,5.59088 h -1.1386 -1.1391 l -5.0167,-6.60585 -5.015,-6.60585 1.0866,-5.61855 1.0862,-5.62099 1.6999,-1.052 z m -44.526,24.51147 v 1.017 1.01538 h 1.0162 1.0162 v -1.01538 -1.017 h -1.0162 z m -11.782,2.43201 6.7813,4.60359 6.7792,4.59991 8.2548,-0.63079 8.2602,-0.6312 v 2.7352 2.73725 l -6.6058,3.82139 -6.6043,3.82018 -7.2,0.56039 -7.1984,0.5612 -3.471,-3.83442 -3.4714,-3.83726 v -5.02398 -5.02194 l 2.2396,-2.23871 z m 3.6517,7.72948 v 1.0166 1.01659 h 1.0162 1.0162 v -1.01659 -1.0166 h -1.0162 z m 8.1303,8.13033 v 1.0166 1.01619 h 1.0162 1.0162 v -1.01619 -1.0166 h -1.0162 z m 62.6302,5.08299 4.2068,5.07851 4.2093,5.08339 v 3.43437 3.43885 l -1.7821,1.1045 -1.7874,1.10369 -1.1212,-5.55832 -1.1216,-5.55588 -1.3491,-4.06354 z m -158.1549,49.11531 v 2.71282 2.70916 l 1.3491,-1.34949 1.3491,-1.34909 -1.3491,-1.34949 z m 74.3227,46.82329 6.1537,0.29301 6.2909,0.29708 3.0978,3.55728 3.0978,3.5585 1.1216,5.0781 1.1212,5.08298 1.507,4.95072 1.507,4.94747 -7.6151,-8.42823 -7.6152,-8.43108 1.4891,-2.42388 1.507,-2.42348 -2.2216,1.36659 -2.2204,1.3674 z m 29.334,6.69904 v 1.01578 1.017 h 1.0166 1.0162 v -1.017 -1.01578 h -1.0162 z m -31.5031,5.08135 2.7877,3.5585 2.7893,3.55361 h 0.7712 0.7708 v -0.77038 -0.7712 l -3.5568,-2.78974 z m 45.1796,18.29183 2.1654,10.1383 2.1626,10.13504 -0.4908,0.47452 -0.4904,0.47533 -6.6131,-6.03813 -6.6112,-6.04179 1.402,-2.25295 1.3841,-2.25052 1.682,2.70916 1.6649,2.7055 1.8627,-5.03089 z m 294.1579,0 -2.6196,9.14653 -2.6229,9.14611 -4.0847,13.79569 -4.088,13.79731 -9.3305,18.72445 -9.3304,18.7212 -19.6707,35.5679 -19.6742,35.5691 -8.6489,16.705 -8.6528,16.7059 -6.6498,-7.0502 -6.6515,-7.0527 h -4.1982 -4.1999 l -4.7085,1.8224 -4.7029,1.8219 -3.8373,7.2521 -3.8393,7.2497 3.368,5.144 3.3713,5.1433 7.0735,2.9557 7.0738,2.9566 v 2.9855 2.9875 l -1.2266,3.2155 -1.244,3.2117 h -1.9343 -1.9348 l 1.0691,-1.7349 1.0687,-1.7344 -2.9594,-3.8552 -2.9578,-3.8564 -3.9618,5.0639 -3.9602,5.0614 2.9175,3.2276 2.9212,3.2285 v 2.2826 2.2835 l -2.3583,5.1774 -2.3572,5.1766 h -1.647 -1.647 l 1.2266,-3.5573 1.2266,-3.5552 -3.2573,4.0651 -3.2594,4.064 -0.175,6.544 -0.175,6.5411 -2.8402,-1.0866 -2.8422,-1.0862 -1.1216,1.8037 -1.1212,1.8077 -1.0162,5.6532 -1.0341,5.6576 -3.1906,4.8726 -3.1926,4.8717 h -1.2091 -1.2091 l 1.0337,-3.9723 1.0341,-3.9692 -2.6127,-3.5743 -2.6144,-3.5732 -3.049,2.5305 -3.0485,2.5265 -1.0341,3.9251 -1.0337,3.9232 2.8402,2.3591 2.8369,2.3547 -0.1749,4.3228 -0.175,4.3265 -2.9611,3.9141 -2.9615,3.9183 -0.7533,-0.8762 -0.7533,-0.8591 -2.3551,-4.5275 -2.3535,-4.5262 -4.5274,-2.1903 -4.5247,-2.1915 3.2244,2.6526 3.2224,2.6534 2.2497,4.2206 2.2464,4.2231 1.542,11.0214 1.542,11.0218 1.1216,-5.0838 1.1212,-5.0777 3.9915,-6.098 3.9898,-6.0979 6.9266,-8.6399 6.9216,-8.6366 h 2.4898 2.4882 l 3.6798,4.0652 3.6761,4.0664 h 3.7514 3.7481 v -2.7364 -2.7336 l 4.0668,-3.6761 4.0652,-3.6798 v -3.7477 -3.7518 h -1.9677 -1.9693 l 1.0512,2.714 1.0337,2.7128 -3.9215,4.8413 -3.9215,4.8425 -3.259,-2.708 -3.2626,-2.7055 1.2266,-4.8469 1.2262,-4.8502 h -3.2729 -3.2679 v -1.1562 -1.1566 l 2.0711,-3.8711 2.073,-3.8706 5.549,2.4389 5.5494,2.4374 1.4895,2.073 1.4894,2.0743 v -2.7169 -2.7205 l -6.0979,-2.2998 -6.0976,-2.3005 v -1.5949 -1.5941 h 3.8479 3.8478 l 1.2966,-3.3949 1.2966,-3.3937 -2.6107,-1.6474 -2.6074,-1.647 h 2.7246 2.723 l 5.3496,6.0959 5.3516,6.0984 h 4.5136 4.5157 l 5.1969,-4.5743 5.1974,-4.5722 1.2441,-6.5224 1.2616,-6.5269 -6.3206,-6.3202 -6.3218,-6.3185 -4.0778,1.2966 -4.0826,1.2962 v -1.6995 -1.6999 l 5.4549,-8.0917 5.4509,-8.0945 3.5556,-2.5574 3.5553,-2.5598 0.6483,-4.5559 0.6483,-4.5556 4.7012,0.5083 4.6996,0.5079 4.0526,-2.1687 4.0513,-2.1679 -0.6308,-5.455 -0.6308,-5.4509 -4.5734,0.49 -4.5731,0.49 v -0.7362 -0.7537 l 12.5109,-24.1293 12.5109,-24.1322 3.4169,-5.0809 3.4168,-5.0839 13.3782,-25.4035 13.3765,-25.4064 9.42,-24.11343 9.42,-24.1163 -0.6482,-7.38763 z m -342.3849,3.04898 v 1.01578 1.0166 h 1.0162 1.0166 v -1.0166 -1.01578 h -1.0166 z m 63.0034,5.41954 v 2.71161 2.70957 l 1.3491,-1.34909 1.3495,-1.3499 -1.3495,-1.36618 z m -30.4853,2.71161 h 1.0162 1.0162 v 1.017 1.01619 h -1.0162 -1.0162 v -1.01619 z m -1.8976,2.46742 -2.0153,2.42714 -2.0165,2.42835 1.1736,4.46318 1.1741,4.46277 -3.2854,5.01462 -3.2838,5.01421 v 3.0152 3.0156 l -4.8009,5.18147 -4.803,5.17903 -5.8681,1.0516 -5.8716,1.05119 -4.0636,-2.38604 -4.0635,-2.39254 -1.4895,-2.20575 -1.4891,-2.20656 v -8.18405 -8.18609 l 2.977,-4.25318 2.9785,-4.25075 7.1162,-3.37658 7.1158,-3.37658 10.2994,-0.7358 z m 7.9936,5.66047 h 1.6469 1.6474 l 3.9443,2.88171 3.9423,2.88497 -1.0162,0.7533 -1.0162,0.75329 -4.5735,-0.7362 -4.5734,-0.73579 v -2.90532 z m 28.1863,1.62908 -1.0862,1.08659 -1.0866,1.08619 1.332,2.16749 1.3491,2.1675 h 1.9115 1.9136 v -1.91314 -1.91192 l -2.1675,-1.33118 z m -72.9016,6.50614 v 1.01619 1.01659 h 1.0162 1.0166 v -1.01659 -1.01619 h -1.0166 z m 52.8456,6.09795 v 2.03238 2.03116 h 2.0344 2.0291 v -2.03116 -2.03238 h -2.0291 z m 26.4238,0 v 1.01619 1.01619 h 1.0162 1.0162 v -1.01619 -1.01619 h -1.0162 z m -79.2694,2.03238 v 1.01619 1.0166 h 1.0162 1.0166 v -1.0166 -1.01619 h -1.0166 z m 83.3329,0 v 1.01619 1.0166 h 1.0162 1.0162 v -1.0166 -1.01619 h -1.0162 z m -4.0635,1.3495 v 2.70834 2.70957 l 1.3491,-1.34908 1.3495,-1.34991 -1.3495,-1.34868 z m -54.88,2.70834 v 1.0166 1.0166 h 1.0162 1.0162 v -1.0166 -1.0166 h -1.0162 z m 26.4238,0 v 1.0166 1.0166 h 1.0162 1.0162 v -1.0166 -1.0166 h -1.0162 z m 32.5197,0 v 1.0166 1.0166 h 1.0162 1.0162 v -1.0166 -1.0166 h -1.0162 z m -2.4287,5.58803 -4.3737,4.53481 -4.3769,4.5348 6.0976,-3.00136 6.0979,-2.99974 4.9186,0.78829 4.9165,0.7887 2.8211,4.02447 2.8194,4.02488 h 0.7008 0.7012 l -1.0691,-4.06313 -1.0687,-4.0668 h -1.9151 -1.9172 l 1.0516,-1.69989 1.0337,-1.69948 -2.9558,-0.29709 -2.9599,-0.29301 -5.2812,-0.29708 z m -80.9042,0.5083 v 1.01619 1.01619 h 1.0162 1.0166 v -1.01619 -1.01619 h -1.0166 z m 109.7563,10.16109 v 1.017 1.01536 h 1.0166 1.0162 v -1.01536 -1.017 h -1.0162 z m -43.7007,3.04936 0.5608,9.1461 0.5608,9.147 -7.0579,7.6204 -7.0597,7.6228 h -5.341 -5.341 l -5.94,-5.9404 -5.9417,-5.9421 v -4.1226 -4.127 l 2.3812,-5.225 2.3815,-5.2287 5.2409,-1.367 5.2393,-1.3666 10.1647,-0.175 z m 29.4728,1.0158 v 1.0166 1.0162 h 1.0162 1.0162 v -1.0162 -1.0166 h -1.0162 z m 18.2914,0 v 1.0166 1.0162 h 1.0166 1.0162 v -1.0162 -1.0166 h -1.0162 z m -10.161,2.0312 v 1.0166 1.0157 h 1.0161 1.0162 v -1.0157 -1.0166 h -1.0162 z m 22.3565,4.0668 v 1.0161 1.0162 h 1.0166 1.0162 v -1.0162 -1.0161 h -1.0162 z m -16.152,1.1036 3.5011,2.5094 3.5044,2.5073 3.049,1.3495 3.049,1.367 1.5945,2.6282 1.5944,2.6302 6.0329,-1.2095 6.0312,-1.2087 v 6.1028 6.0992 l -3.0876,2.5639 -3.0836,2.5618 -7.5858,1.3491 -7.5834,1.3495 -4.9414,-2.5077 -4.943,-2.5094 -0.7532,-3.6948 -0.7537,-3.6924 -0.7887,-5.0817 -0.7883,-5.0798 2.9806,-4.0212 z m -38.7243,2.9595 v 1.017 1.0162 h 1.0162 1.0162 v -1.0162 -1.017 h -1.0162 z m 20.3259,4.0639 v 1.0158 1.0166 h 1.0162 1.0166 v -1.0166 -1.0158 h -1.0166 z m -8.132,6.0976 v 1.0166 1.0162 h 1.0162 1.0162 v -1.0162 -1.0166 h -1.0162 z m 61.3947,7.1162 -1.1916,4.0631 -1.1916,4.0656 -2.1077,11.1793 -2.1097,11.1789 -8.1653,30.3925 -8.1637,30.3942 -0.7362,0.7357 -0.7358,0.7358 -0.9462,-1.6644 -0.9462,-1.6645 -6.378,-19.3321 -6.3767,-19.3275 4.0725,-14.6906 4.0705,-14.6854 v -4.0916 -4.0916 h 7.6761 7.6766 l 5.0256,-3.3452 5.0252,-3.3465 2.7511,-3.2606 z m -58.8857,37.0366 5.8615,6.2697 5.8558,6.2672 v 1.0691 1.0866 l -5.2149,-1.9835 -5.2128,-1.9815 h -1.1037 -1.1041 l 1.2266,4.8693 1.2266,4.8697 -3.1995,1.2262 -3.1996,1.227 h -1.9152 -1.9168 l -2.0975,-5.5099 -2.0922,-5.5107 1.1562,-4.6206 1.1566,-4.6232 5.2901,-1.3324 z m 151.9836,50.8897 6.1802,2.561 6.1802,2.5598 2.8508,5.5107 2.8491,5.5087 -2.3376,2.3343 -2.3339,2.334 h -2.5407 -2.5423 l -2.1818,-3.5553 -2.1833,-3.5572 -3.2468,4.5734 -3.2484,4.5735 h -1.3845 -1.384 l -2.441,-2.4398 -2.4394,-2.4389 v -5.6434 -5.6462 l 5.0956,-3.3363 z m 4.0408,26.906 h 1.0162 1.0162 v 1.0162 1.0166 h -1.0162 -1.0162 v -1.0166 z m 4.0631,4.0672 h 1.0166 1.0162 v 1.0166 1.0158 h -1.0162 -1.0166 v -1.0158 z m 4.3562,16.2591 h 2.8247 2.8227 l 3.9724,4.2625 3.9708,4.2601 -0.8062,6.4093 -0.8062,6.4085 -3.471,2.539 -3.4694,2.5423 h -2.4092 -2.4129 l -2.3938,-2.8845 -2.3934,-2.8858 3.4747,-1.9433 3.4747,-1.9465 -1.2616,-3.2993 -1.2616,-3.3013 h -3.1121 -3.112 v -1.8891 -1.8834 l 3.1926,-3.1943 z m -132.4022,12.1934 h 2.1532 2.1537 l -1.2616,2.0344 -1.2616,2.0292 h -0.8937 -0.8937 v -2.0292 z m 6.0975,4.0636 h 1.0166 1.0162 v 1.0162 1.0161 h -1.0162 -1.0166 v -1.0161 z m 95.5284,1.3491 1.3495,1.3669 1.3491,1.3491 -1.3491,1.3495 -1.3495,1.3491 v -2.7091 z m 8.3688,4.7435 h 1.0162 1.0166 l -1.262,2.034 -1.2616,2.0328 h -1.0162 -1.0162 l 1.2616,-2.0328 z m -61.3755,36.5841 -8.2829,4.2255 -8.281,4.2247 -1.0161,3.9056 -1.0166,3.9053 h -3.3205 -3.3188 l -5.0829,3.1173 -5.0781,3.1174 4.0635,-1.612 4.0652,-1.612 h 9.1449 9.1448 v -6.0963 -6.1012 l 7.1158,-3.5553 7.1142,-3.5532 h -2.6233 z m -5.6157,21.3412 v 5.0814 5.0834 l 1.0162,-2.5428 1.0337,-2.5406 -1.0337,-2.5391 z m 2.008,11.4211 2.0832,5.975 2.08,5.9714 1.647,-1.0162 1.647,-1.0162 -1.0162,-3.9199 -1.0337,-3.9247 -2.7002,-1.0341 z m 9.8648,1.7926 v 1.0158 1.017 h 1.0166 1.0162 v -1.017 -1.0158 h -1.0162 z m 13.2137,1.8061 -4.0668,1.87 -4.0635,1.8696 -3.049,1.1383 -3.049,1.1395 3.1682,0.1791 3.1678,0.175 3.9443,-3.1597 z m -4.0668,6.7113 v 8.7558 8.7595 l 1.5245,-0.9462 1.5241,-0.9462 v -6.8744 -6.872 l -1.5241,-0.9458 z m -15.2445,3.6761 v 1.017 1.0154 h 1.0162 1.0162 v -1.0154 -1.017 h -1.0162 z m -24.8679,28.4549 h 3.0542 3.0543 l 6.7792,2.8488 6.7796,2.8496 -8.0709,2.1496 -8.0693,2.1483 -9.085,1.4366 -9.0872,1.4366 7.3246,-6.4301 z" /></g></svg>
