<?xml version="1.0" encoding="UTF-8" standalone="no"?>
<!-- Created with Inkscape (http://www.inkscape.org/) -->

<svg
   width="210mm"
   height="297mm"
   viewBox="0 0 210 297"
   version="1.1"
   id="svg1"
   xml:space="preserve"
   inkscape:version="1.3.2 (091e20e, 2023-11-25, custom)"
   sodipodi:docname="undraw_right_direction_tge8.svg"
   xmlns:inkscape="http://www.inkscape.org/namespaces/inkscape"
   xmlns:sodipodi="http://sodipodi.sourceforge.net/DTD/sodipodi-0.dtd"
   xmlns="http://www.w3.org/2000/svg"
   xmlns:svg="http://www.w3.org/2000/svg"><sodipodi:namedview
     id="namedview1"
     pagecolor="#ffffff"
     bordercolor="#000000"
     borderopacity="0.25"
     inkscape:showpageshadow="2"
     inkscape:pageopacity="0.0"
     inkscape:pagecheckerboard="0"
     inkscape:deskcolor="#d1d1d1"
     inkscape:document-units="mm"
     inkscape:zoom="0.50583233"
     inkscape:cx="123.55873"
     inkscape:cy="477.43093"
     inkscape:window-width="1920"
     inkscape:window-height="1009"
     inkscape:window-x="2552"
     inkscape:window-y="-8"
     inkscape:window-maximized="1"
     inkscape:current-layer="layer1" /><defs
     id="defs1" /><g
     inkscape:label="Layer 1"
     inkscape:groupmode="layer"
     id="layer1"><polygon
       points="124.762,467.944 106.706,462.896 93.512,510.086 105.746,513.506 "
       fill="#ffb8b8"
       id="polygon1"
       transform="matrix(0.26458333,0,0,0.26458333,35.189846,78.054688)"
       style="fill:#9d7171;fill-opacity:1" /><path
       d="m 68.571083,218.67111 -10.173552,-2.84434 1.098949,-3.93069 6.636272,1.85538 a 3.6729273,3.6729273 0 0 1 2.548321,4.52624 z"
       fill="#2f2e41"
       id="path1"
       style="stroke-width:0.264583" /><polygon
       points="258.196,470.666 239.447,470.667 239.451,519.667 252.155,519.666 "
       fill="#ffb8b8"
       id="polygon2"
       transform="matrix(0.26458333,0,0,0.26458333,35.189846,78.054688)"
       style="fill:#9d7171;fill-opacity:1" /><path
       d="m 108.38844,218.67016 -10.563729,9.5e-4 -3.68e-4,-4.08142 6.890777,-6.2e-4 a 3.6729273,3.6729273 0 0 1 3.67328,3.67259 z"
       fill="#2f2e41"
       id="path2"
       style="stroke-width:0.264583" /><polygon
       points="145.049,316.237 115.809,387.868 235.206,414.691 236.729,374.615 182.513,316.868 "
       fill="#b3b3b3"
       id="polygon3"
       transform="matrix(0.26458333,0,0,0.26458333,35.189846,78.054688)" /><circle
       cx="16.179535"
       cy="152.28825"
       r="7.2211747"
       transform="rotate(-28.663211)"
       fill="#ffb8b8"
       id="circle3"
       style="fill:#9d7171;fill-opacity:1;stroke-width:0.264583" /><path
       d="m 92.403298,160.67703 -14.299142,-5.85339 -1.273111,-8.39457 a 9.6455388,9.6455388 0 0 1 7.645794,-10.91561 l 1.891355,-0.37982 a 9.7343673,9.7343673 0 0 1 8.717299,2.5855 9.2939154,9.2939154 0 0 1 2.727028,8.36203 8.0962711,8.0962711 0 0 1 -1.529685,3.56399 c -4.492038,5.87419 -3.915395,10.75735 -3.909,10.80606 z"
       fill="#6c63ff"
       id="path3"
       style="fill:#aa00d4;fill-opacity:1;stroke-width:0.264583" /><path
       d="m 98.22561,182.56898 -7.166163,-11.39672 2.257097,-20.73129 -3.117897,-15.50487 0.165751,0.004 a 7.0653883,7.0653883 0 0 1 6.888977,6.89195 l 3.033145,15.19339 z"
       fill="#2f2e41"
       id="path4"
       style="stroke-width:0.264583" /><path
       d="m 98.389297,213.09903 a 1.3086292,1.3086292 0 0 1 -1.281641,-1.05046 l -3.139546,-15.6117 a 24.490627,24.490627 0 0 0 -3.188629,-8.07548 l -8.858697,-14.33026 a 0.45572627,0.45572627 0 0 0 -0.808347,0.0646 l -14.56455,34.98779 a 1.3113279,1.3113279 0 0 1 -1.469231,0.77902 l -3.890751,-0.79322 a 1.3028083,1.3028083 0 0 1 -1.028523,-1.50068 l 3.173965,-18.70545 a 48.279502,48.279502 0 0 1 3.285911,-11.08317 l 10.749227,-24.84267 15.863112,5.20976 1.046771,11.10785 7.329532,17.74787 a 12.166145,12.166145 0 0 1 0.89633,3.84924 l 1.35412,20.5118 a 1.3143627,1.3143627 0 0 1 -1.19883,1.39023 l -4.162487,0.34055 c -0.0361,0.003 -0.07208,0.004 -0.107736,0.004 z"
       fill="#2f2e41"
       id="path5"
       style="stroke-width:0.264583" /><path
       d="m 69.451043,187.65161 -5.029054,-4.77348 9.504233,-36.64944 a 15.36187,15.36187 0 0 1 9.039404,-10.32689 l 0.186616,-0.076 -0.507852,22.30561 z"
       fill="#2f2e41"
       id="path6"
       style="stroke-width:0.264583" /><path
       d="m 85.560681,133.06075 c -1.784006,-1.54418 -2.326582,-4.42478 -1.233443,-6.54847 1.09314,-2.12369 3.706937,-3.26693 5.941944,-2.59893 2.104998,0.62915 4.497962,-1.46943 4.241511,-3.71971 -0.25645,-2.25028 -3.055622,-3.71612 -4.961519,-2.59819 a 8.0726358,8.0726358 0 0 0 -8.605287,1.67603 c -2.239185,2.1936 -3.088659,5.77963 -2.083419,8.79507 1.005239,3.01545 3.811214,5.29838 6.700213,4.9942 z"
       fill="#2f2e41"
       id="path7"
       style="stroke-width:0.264583" /><path
       d="m 79.243696,191.74975 a 1.2336621,1.2336621 0 0 1 -0.273392,0.0705 l -11.481577,1.60274 a 1.2356042,1.2356042 0 0 1 -1.330011,-0.7839 l -9.882933,-25.71621 a 1.2409355,1.2409355 0 0 1 0.888018,-1.65637 l 6.1e-5,-3e-5 10.797238,-2.40946 a 0.98636665,0.98636665 0 0 0 0.239655,-0.0877 l 10.501841,-5.49069 a 1.2291774,1.2291774 0 0 1 0.255299,-0.0994 l 11.55736,-3.08107 a 1.2385146,1.2385146 0 0 1 1.478045,0.75386 l 8.61731,22.42294 a 1.2347416,1.2347416 0 0 1 -0.16302,1.18634 l -2.980199,4.00209 a 1.2392924,1.2392924 0 0 1 -0.550193,0.41711 l -6.513012,2.503 a 0.98120728,0.98120728 0 0 0 -0.13534,0.0643 l -10.852944,6.22007 a 1.2396285,1.2396285 0 0 1 -0.172206,0.0818 z"
       fill="#ffffff"
       id="path8"
       style="stroke-width:0.264583" /><path
       d="m 84.585532,157.52632 -1.467643,0.39143 -3.889254,1.03729 -0.0069,0.002 -5.324676,2.78416 -1.97603,1.0334 -7.93e-4,2.6e-4 -2.967808,1.55154 -0.08139,0.0183 -3.083044,0.68754 -1.490036,0.33316 -6.077331,1.35609 9.540648,24.82554 6.262629,-0.87391 1.535549,-0.21473 3.272896,-0.45739 0.03799,-0.005 10.517005,-6.02768 6.398837,-2.45912 2.921529,-3.92311 -8.304943,-21.61014 z"
       fill="#e6e6e6"
       id="path9"
       style="stroke-width:0.264583" /><rect
       x="-5.4622936"
       y="181.8387"
       width="33.894855"
       height="1.5103766"
       transform="rotate(-21.02215)"
       fill="#ffffff"
       id="rect9"
       style="stroke-width:0.264583" /><rect
       x="-5.4622965"
       y="186.87329"
       width="33.894855"
       height="1.5103766"
       transform="rotate(-21.02215)"
       fill="#ffffff"
       id="rect10"
       style="stroke-width:0.264583" /><rect
       x="-5.4622965"
       y="197.04315"
       width="33.894855"
       height="1.5103766"
       transform="rotate(-21.02215)"
       fill="#ffffff"
       id="rect11"
       style="stroke-width:0.264583" /><polygon
       points="217.164,395.567 181.145,301.845 186.692,300.365 222.492,393.519 "
       fill="#ffffff"
       id="polygon11"
       transform="matrix(0.26458333,0,0,0.26458333,35.189846,78.054688)" /><polygon
       points="129.358,346.548 131.907,339.452 138.823,320.201 138.826,320.2 146.295,316.294 138.944,336.748 136.395,343.843 130.449,360.398 129.175,363.937 127.9,367.493 126.221,372.162 114.17,405.7 111.037,397.547 120.863,370.198 123.086,364.006 123.412,363.102 126.041,355.781 "
       fill="#ffffff"
       id="polygon12"
       transform="matrix(0.26458333,0,0,0.26458333,35.189846,78.054688)" /><polygon
       points="146.295,316.294 166.42,305.771 166.446,305.765 205.707,399.97 204.84,400.303 165.091,423.085 164.947,423.103 127.298,326.134 127.606,326.065 138.823,320.201 138.826,320.2 "
       opacity="0.1"
       id="polygon13"
       transform="matrix(0.26458333,0,0,0.26458333,35.189846,78.054688)" /><path
       d="m 79.29109,191.87326 a 1.3705099,1.3705099 0 0 1 -0.302453,0.078 l -11.481638,1.60276 a 1.3674857,1.3674857 0 0 1 -1.471769,-0.86755 l -9.882933,-25.7162 a 1.3733039,1.3733039 0 0 1 0.982707,-1.83297 l 10.797238,-2.40942 a 0.85806226,0.85806226 0 0 0 0.207225,-0.0759 l 10.501841,-5.49069 a 1.3654987,1.3654987 0 0 1 0.282387,-0.10991 l 11.557529,-3.08101 a 1.3704464,1.3704464 0 0 1 1.635564,0.83423 l 8.617312,22.42295 a 1.366602,1.366602 0 0 1 -0.18041,1.31288 l -2.980169,4.00193 a 1.3712243,1.3712243 0 0 1 -0.608849,0.46166 l -6.513012,2.503 a 0.84967497,0.84967497 0 0 0 -0.117084,0.0556 l -10.852893,6.22005 a 1.3731451,1.3731451 0 0 1 -0.190593,0.0905 z M 57.131138,165.68981 a 0.84424043,0.84424043 0 0 0 -0.484893,1.09068 l 9.88292,25.71619 a 0.84050186,0.84050186 0 0 0 0.904698,0.53325 l 11.481638,-1.60276 a 0.84762974,0.84762974 0 0 0 0.303139,-0.10363 l 10.852943,-6.22006 a 1.3779024,1.3779024 0 0 1 0.190236,-0.0904 l 6.513009,-2.503 a 0.84337259,0.84337259 0 0 0 0.374256,-0.28376 l 2.980186,-4.00194 a 0.83994624,0.83994624 0 0 0 0.11088,-0.80702 l -8.617309,-22.42294 a 0.84243332,0.84243332 0 0 0 -1.005301,-0.51286 l -11.557412,3.08111 a 0.87043418,0.87043418 0 0 0 -0.173496,0.0675 l -10.501987,5.49089 a 1.3959416,1.3959416 0 0 1 -0.337029,0.12329 l -10.797299,2.40949 a 0.83743799,0.83743799 0 0 0 -0.119179,0.036 z"
       fill="#e6e6e6"
       id="path13"
       style="stroke-width:0.264583" /><polygon
       points="146.774,425.643 110.014,329.992 115.646,328.733 152.577,424.832 "
       fill="#ffffff"
       id="polygon14"
       transform="matrix(0.26458333,0,0,0.26458333,35.189846,78.054688)" /><circle
       cx="68.598183"
       cy="174.59021"
       r="0.70484203"
       fill="#3f3d56"
       id="circle14"
       style="stroke-width:0.264583" /><circle
       cx="93.589485"
       cy="175.34151"
       r="0.70484203"
       fill="#6c63ff"
       id="circle15"
       style="fill:#aa00d4;fill-opacity:1;stroke-width:0.264583" /><path
       d="m 93.874831,162.6109 c 0.799957,2.08155 -0.162719,8.97972 -0.501269,11.19402 a 0.40245241,0.40245241 0 0 1 -0.652804,0.25088 c -1.734344,-1.41767 -7.068997,-5.89574 -7.868952,-7.97729 a 4.8332039,4.8332039 0 1 1 9.023025,-3.46763 z"
       fill="#6c63ff"
       id="path15"
       style="fill:#aa00d4;fill-opacity:1;stroke-width:0.264583" /><circle
       cx="89.363327"
       cy="164.34471"
       r="2.6179833"
       fill="#ffffff"
       id="circle16"
       style="stroke-width:0.264583" /><path
       d="m 86.000476,158.69584 a 2.7569133,2.7569133 0 0 1 3.840597,-1.76657 l 4.673573,-4.2247 3.26004,2.21395 -6.683788,5.8734 a 2.7718596,2.7718596 0 0 1 -5.090422,-2.09608 z"
       fill="#ffb8b8"
       id="path16"
       style="fill:#9d7171;fill-opacity:1;stroke-width:0.264583" /><path
       d="m 93.530873,160.07474 -3.663471,-4.97178 8.351943,-5.34528 -5.986132,-8.54186 a 3.4612791,3.4612791 0 0 1 5.167447,-4.54339 l 7.49531,6.83847 a 6.2784169,6.2784169 0 0 1 -0.88096,9.94772 z"
       fill="#2f2e41"
       id="path17"
       style="stroke-width:0.264583" /><path
       d="m 64.828651,173.11971 a 2.7569265,2.7569265 0 0 0 0.382796,-4.21005 l 2.421713,-5.81599 -3.175418,-2.33367 -3.304572,8.26133 a 2.7718596,2.7718596 0 0 0 3.675486,4.0984 z"
       fill="#ffb8b8"
       id="path18"
       style="fill:#9d7171;fill-opacity:1;stroke-width:0.264583" /><path
       d="m 66.464921,167.21436 -5.727266,-1.33376 4.267957,-12.30713 a 20.177866,20.177866 0 0 1 3.210332,-5.87522 l 6.962818,-8.85412 a 3.8935342,3.8935342 0 0 1 6.138386,4.79144 l -7.726177,9.97175 z"
       fill="#2f2e41"
       id="path19"
       style="stroke-width:0.264583" /><path
       d="M 136.26076,218.94531 H 35.45443 a 0.264585,0.264585 0 1 1 0,-0.52917 h 100.80633 a 0.264585,0.264585 0 0 1 0,0.52917 z"
       fill="#cccccc"
       id="path20"
       style="stroke-width:0.264583" /><path
       d="m 161.60442,218.81302 h -2.38125 V 79.245313 a 1.190625,1.190625 0 0 1 2.38125,0 z"
       fill="#e6e6e6"
       id="path21"
       style="stroke-width:0.264583" /><path
       d="m 178.85859,218.94531 h -37.04167 a 0.264585,0.264585 0 0 1 0,-0.52917 h 37.04167 a 0.264585,0.264585 0 0 1 0,0.52917 z"
       fill="#cccccc"
       id="path22"
       style="stroke-width:0.264583" /><path
       d="m 178.12764,96.310938 h -34.64719 a 1.1919664,1.1919664 0 0 1 -1.19063,-1.190625 V 85.066146 a 1.1919664,1.1919664 0 0 1 1.19063,-1.190625 h 34.64971 a 1.1931465,1.1931465 0 0 1 0.58019,0.151024 l 8.96005,5.000342 a 1.1905694,1.1905694 0 0 1 0.005,2.076746 l -8.96257,5.053825 a 1.1939905,1.1939905 0 0 1 -0.58478,0.15348 z"
       fill="#6c63ff"
       id="path23"
       style="stroke-width:0.264583;fill:#aa00d4" /><path
       d="m 174.96588,118.00677 h -34.64719 a 1.1935724,1.1935724 0 0 1 -0.58473,-0.15348 l -8.96263,-5.05382 a 1.1905668,1.1905668 0 0 1 0.005,-2.07675 l 8.96005,-5.00034 a 1.1931465,1.1931465 0 0 1 0.58019,-0.15103 h 34.64972 a 1.1919691,1.1919691 0 0 1 1.19062,1.19063 v 10.05417 a 1.1919691,1.1919691 0 0 1 -1.19062,1.19062 z"
       fill="#e6e6e6"
       id="path24"
       style="stroke-width:0.264583" /><path
       d="m 175.09817,139.30573 h -34.64719 a 1.1935724,1.1935724 0 0 1 -0.58473,-0.15348 l -8.96263,-5.05383 a 1.1905668,1.1905668 0 0 1 0.005,-2.07674 l 8.96005,-5.00034 a 1.1931465,1.1931465 0 0 1 0.58019,-0.15103 h 34.64972 a 1.1919691,1.1919691 0 0 1 1.19063,1.19063 v 10.05416 a 1.1919691,1.1919691 0 0 1 -1.19063,1.19063 z"
       fill="#e6e6e6"
       id="path25"
       style="stroke-width:0.264583" /></g></svg>
